{
  "accessors": [
    {
      "bufferView": 0,
      "componentType": 5126,
      "count": 841,
      "max": [
        0.927574098110199,
        0.1467858999967575,
        0.07208762317895889
      ],
      "min": [
        -0.7589022517204285,
        -0.011469792574644089,
        -0.07010690867900848
      ],
      "type": "VEC3"
    },
    {
      "bufferView": 1,
      "componentType": 5126,
      "count": 841,
      "type": "VEC3"
    },
    {
      "bufferView": 2,
      "componentType": 5126,
      "count": 841,
      "type": "VEC2"
    },
    {
      "bufferView": 3,
      "componentType": 5125,
      "count": 2823,
      "type": "SCALAR"
    },
    {
      "bufferView": 4,
      "componentType": 5125,
      "count": 2538,
      "type": "SCALAR"
    },
    {
      "bufferView": 5,
      "componentType": 5125,
      "count": 1269,
      "type": "SCALAR"
    },
    {
      "bufferView": 6,
      "componentType": 5125,
      "count": 633,
      "type": "SCALAR"
    },
    {
      "bufferView": 7,
      "componentType": 5126,
      "count": 83,
      "max": [
        0.9275676608085632,
        0.11726386100053787,
        0.027493897825479507
      ],
      "min": [
        -0.7589022517204285,
        -0.011469793505966663,
        -0.07010690867900848
      ],
      "type": "VEC3"
    },
    {
      "bufferView": 8,
      "componentType": 5126,
      "count": 83,
      "type": "VEC3"
    },
    {
      "bufferView": 9,
      "componentType": 5126,
      "count": 83,
      "type": "VEC2"
    },
    {
      "bufferView": 10,
      "componentType": 5125,
      "count": 123,
      "type": "SCALAR"
    },
    {
      "bufferView": 11,
      "componentType": 5126,
      "count": 33,
      "max": [
        0.9275676608085632,
        0.10541918128728867,
        0.017190158367156982
      ],
      "min": [
        -0.7454258799552917,
        -0.005009678192436695,
        -0.07010690867900848
      ],
      "type": "VEC3"
    },
    {
      "bufferView": 12,
      "componentType": 5126,
      "count": 33,
      "type": "VEC3"
    },
    {
      "bufferView": 13,
      "componentType": 5126,
      "count": 33,
      "type": "VEC2"
    },
    {
      "bufferView": 14,
      "componentType": 5125,
      "count": 39,
      "type": "SCALAR"
    }
  ],
  "asset": {
    "generator": "BlitzRemesher",
    "version": "2.0"
  },
  "bufferViews": [
    {
      "buffer": 0,
      "byteLength": 10092,
      "byteOffset": 0
    },
    {
      "buffer": 0,
      "byteLength": 10092,
      "byteOffset": 10092
    },
    {
      "buffer": 0,
      "byteLength": 6728,
      "byteOffset": 20184
    },
    {
      "buffer": 0,
      "byteLength": 11292,
      "byteOffset": 26912
    },
    {
      "buffer": 0,
      "byteLength": 10152,
      "byteOffset": 38204
    },
    {
      "buffer": 0,
      "byteLength": 5076,
      "byteOffset": 48356
    },
    {
      "buffer": 0,
      "byteLength": 2532,
      "byteOffset": 53432
    },
    {
      "buffer": 0,
      "byteLength": 996,
      "byteOffset": 55964
    },
    {
      "buffer": 0,
      "byteLength": 996,
      "byteOffset": 56960
    },
    {
      "buffer": 0,
      "byteLength": 664,
      "byteOffset": 57956
    },
    {
      "buffer": 0,
      "byteLength": 492,
      "byteOffset": 58620
    },
    {
      "buffer": 0,
      "byteLength": 396,
      "byteOffset": 59112
    },
    {
      "buffer": 0,
      "byteLength": 396,
      "byteOffset": 59508
    },
    {
      "buffer": 0,
      "byteLength": 264,
      "byteOffset": 59904
    },
    {
      "buffer": 0,
      "byteLength": 156,
      "byteOffset": 60168
    }
  ],
  "buffers": [
    {
      "byteLength": 60324,
      "uri": "chain.bin"
    }
  ],
  "materials": [
    {
      "doubleSided": true,
      "name": "material_0"
    }
  ],
  "meshes": [
    {
      "name": "LOD0",
      "primitives": [
        {
          "attributes": {
            "NORMAL": 1,
            "POSITION": 0,
            "TEXCOORD_0": 2
          },
          "indices": 3,
          "material": 0,
          "mode": 4
        }
      ]
    },
    {
      "name": "LOD2",
      "primitives": [
        {
          "attributes": {
            "NORMAL": 1,
            "POSITION": 0,
            "TEXCOORD_0": 2
          },
          "indices": 4,
          "material": 0,
          "mode": 4
        }
      ]
    },
    {
      "name": "LOD3",
      "primitives": [
        {
          "attributes": {
            "NORMAL": 1,
            "POSITION": 0,
            "TEXCOORD_0": 2
          },
          "indices": 5,
          "material": 0,
          "mode": 4
        }
      ]
    },
    {
      "name": "LOD4",
      "primitives": [
        {
          "attributes": {
            "NORMAL": 1,
            "POSITION": 0,
            "TEXCOORD_0": 2
          },
          "indices": 6,
          "material": 0,
          "mode": 4
        }
      ]
    },
    {
      "name": "LOD5",
      "primitives": [
        {
          "attributes": {
            "NORMAL": 8,
            "POSITION": 7,
            "TEXCOORD_0": 9
          },
          "indices": 10,
          "material": 0,
          "mode": 4
        }
      ]
    },
    {
      "name": "LOD6",
      "primitives": [
        {
          "attributes": {
            "NORMAL": 12,
            "POSITION": 11,
            "TEXCOORD_0": 13
          },
          "indices": 14,
          "material": 0,
          "mode": 4
        }
      ]
    }
  ],
  "nodes": [
    {
      "mesh": 0,
      "name": "LOD0"
    },
    {
      "mesh": 0,
      "name": "LOD1"
    },
    {
      "mesh": 1,
      "name": "LOD2"
    },
    {
      "mesh": 2,
      "name": "LOD3"
    },
    {
      "mesh": 3,
      "name": "LOD4"
    },
    {
      "mesh": 4,
      "name": "LOD5"
    },
    {
      "mesh": 5,
      "name": "LOD6"
    },
    {
      "mesh": 5,
      "name": "LOD7"
    }
  ],
  "scene": 0,
  "scenes": [
    {
      "nodes": [
        0
      ]
    }
  ]
}
