{
  "accessors": [
    {
      "bufferView": 0,
      "componentType": 5126,
      "count": 15877,
      "max": [
        0.7448046207427979,
        0.15919598937034607,
        0.33019357919692993
      ],
      "min": [
        -0.7364512085914612,
        -0.006344762165099382,
        -0.3725743889808655
      ],
      "type": "VEC3"
    },
    {
      "bufferView": 1,
      "componentType": 5126,
      "count": 15877,
      "type": "VEC3"
    },
    {
      "bufferView": 2,
      "componentType": 5126,
      "count": 15877,
      "type": "VEC2"
    },
    {
      "bufferView": 3,
      "componentType": 5121,
      "count": 15877,
      "normalized": true,
      "type": "VEC4"
    },
    {
      "bufferView": 4,
      "componentType": 5125,
      "count": 43020,
      "type": "SCALAR"
    },
    {
      "bufferView": 5,
      "componentType": 5125,
      "count": 32694,
      "type": "SCALAR"
    },
    {
      "bufferView": 6,
      "componentType": 5125,
      "count": 28605,
      "type": "SCALAR"
    },
    {
      "bufferView": 7,
      "componentType": 5125,
      "count": 21453,
      "type": "SCALAR"
    },
    {
      "bufferView": 8,
      "componentType": 5126,
      "count": 1458,
      "max": [
        0.7375283241271973,
        0.15919598937034607,
        0.32789552211761475
      ],
      "min": [
        -0.6913573741912842,
        -0.005343686789274216,
        -0.3725743889808655
      ],
      "type": "VEC3"
    },
    {
      "bufferView": 9,
      "componentType": 5126,
      "count": 1458,
      "type": "VEC3"
    },
    {
      "bufferView": 10,
      "componentType": 5126,
      "count": 1458,
      "type": "VEC2"
    },
    {
      "bufferView": 11,
      "componentType": 5121,
      "count": 1458,
      "normalized": true,
      "type": "VEC4"
    },
    {
      "bufferView": 12,
      "componentType": 5125,
      "count": 1716,
      "type": "SCALAR"
    },
    {
      "bufferView": 13,
      "componentType": 5126,
      "count": 1120,
      "max": [
        0.707008421421051,
        0.15919598937034607,
        0.32789552211761475
      ],
      "min": [
        -0.6913573741912842,
        -0.005343688651919365,
        -0.3725743889808655
      ],
      "type": "VEC3"
    },
    {
      "bufferView": 14,
      "componentType": 5126,
      "count": 1120,
      "type": "VEC3"
    },
    {
      "bufferView": 15,
      "componentType": 5126,
      "count": 1120,
      "type": "VEC2"
    },
    {
      "bufferView": 16,
      "componentType": 5121,
      "count": 1120,
      "normalized": true,
      "type": "VEC4"
    },
    {
      "bufferView": 17,
      "componentType": 5125,
      "count": 1287,
      "type": "SCALAR"
    }
  ],
  "asset": {
    "generator": "BlitzRemesher",
    "version": "2.0"
  },
  "bufferViews": [
    {
      "buffer": 0,
      "byteLength": 190524,
      "byteOffset": 0
    },
    {
      "buffer": 0,
      "byteLength": 190524,
      "byteOffset": 190524
    },
    {
      "buffer": 0,
      "byteLength": 127016,
      "byteOffset": 381048
    },
    {
      "buffer": 0,
      "byteLength": 63508,
      "byteOffset": 508064
    },
    {
      "buffer": 0,
      "byteLength": 172080,
      "byteOffset": 571572
    },
    {
      "buffer": 0,
      "byteLength": 130776,
      "byteOffset": 743652
    },
    {
      "buffer": 0,
      "byteLength": 114420,
      "byteOffset": 874428
    },
    {
      "buffer": 0,
      "byteLength": 85812,
      "byteOffset": 988848
    },
    {
      "buffer": 0,
      "byteLength": 17496,
      "byteOffset": 1074660
    },
    {
      "buffer": 0,
      "byteLength": 17496,
      "byteOffset": 1092156
    },
    {
      "buffer": 0,
      "byteLength": 11664,
      "byteOffset": 1109652
    },
    {
      "buffer": 0,
      "byteLength": 5832,
      "byteOffset": 1121316
    },
    {
      "buffer": 0,
      "byteLength": 6864,
      "byteOffset": 1127148
    },
    {
      "buffer": 0,
      "byteLength": 13440,
      "byteOffset": 1134012
    },
    {
      "buffer": 0,
      "byteLength": 13440,
      "byteOffset": 1147452
    },
    {
      "buffer": 0,
      "byteLength": 8960,
      "byteOffset": 1160892
    },
    {
      "buffer": 0,
      "byteLength": 4480,
      "byteOffset": 1169852
    },
    {
      "buffer": 0,
      "byteLength": 5148,
      "byteOffset": 1174332
    }
  ],
  "buffers": [
    {
      "byteLength": 1179480,
      "uri": "chain.bin"
    }
  ],
  "materials": [
    {
      "doubleSided": true,
      "name": "material_0"
    }
  ],
  "meshes": [
    {
      "name": "LOD0",
      "primitives": [
        {
          "attributes": {
            "COLOR_0": 3,
            "NORMAL": 1,
            "POSITION": 0,
            "TEXCOORD_0": 2
          },
          "indices": 4,
          "material": 0,
          "mode": 4
        }
      ]
    },
    {
      "name": "LOD1",
      "primitives": [
        {
          "attributes": {
            "COLOR_0": 3,
            "NORMAL": 1,
            "POSITION": 0,
            "TEXCOORD_0": 2
          },
          "indices": 5,
          "material": 0,
          "mode": 4
        }
      ]
    },
    {
      "name": "LOD2",
      "primitives": [
        {
          "attributes": {
            "COLOR_0": 3,
            "NORMAL": 1,
            "POSITION": 0,
            "TEXCOORD_0": 2
          },
          "indices": 6,
          "material": 0,
          "mode": 4
        }
      ]
    },
    {
      "name": "LOD4",
      "primitives": [
        {
          "attributes": {
            "COLOR_0": 3,
            "NORMAL": 1,
            "POSITION": 0,
            "TEXCOORD_0": 2
          },
          "indices": 7,
          "material": 0,
          "mode": 4
        }
      ]
    },
    {
      "name": "LOD5",
      "primitives": [
        {
          "attributes": {
            "COLOR_0": 11,
            "NORMAL": 9,
            "POSITION": 8,
            "TEXCOORD_0": 10
          },
          "indices": 12,
          "material": 0,
          "mode": 4
        }
      ]
    },
    {
      "name": "LOD7",
      "primitives": [
        {
          "attributes": {
            "COLOR_0": 16,
            "NORMAL": 14,
            "POSITION": 13,
            "TEXCOORD_0": 15
          },
          "indices": 17,
          "material": 0,
          "mode": 4
        }
      ]
    }
  ],
  "nodes": [
    {
      "mesh": 0,
      "name": "LOD0"
    },
    {
      "mesh": 1,
      "name": "LOD1"
    },
    {
      "mesh": 2,
      "name": "LOD2"
    },
    {
      "mesh": 2,
      "name": "LOD3"
    },
    {
      "mesh": 3,
      "name": "LOD4"
    },
    {
      "mesh": 4,
      "name": "LOD5"
    },
    {
      "mesh": 4,
      "name": "LOD6"
    },
    {
      "mesh": 5,
      "name": "LOD7"
    }
  ],
  "scene": 0,
  "scenes": [
    {
      "nodes": [
        0
      ]
    }
  ]
}
