{
  "accessors": [
    {
      "bufferView": 0,
      "componentType": 5126,
      "count": 548,
      "max": [
        0.25550732016563416,
        1.1241090297698975,
        0.36709490418434143
      ],
      "min": [
        -0.25560837984085083,
        -0.000963064085226506,
        -1.1169147384748612e-08
      ],
      "type": "VEC3"
    },
    {
      "bufferView": 1,
      "componentType": 5126,
      "count": 548,
      "type": "VEC3"
    },
    {
      "bufferView": 2,
      "componentType": 5126,
      "count": 548,
      "type": "VEC2"
    },
    {
      "bufferView": 3,
      "componentType": 5125,
      "count": 1572,
      "type": "SCALAR"
    },
    {
      "bufferView": 4,
      "componentType": 5126,
      "count": 504,
      "max": [
        0.25550732016563416,
        1.1238704919815063,
        0.3670896589756012
      ],
      "min": [
        -0.25560975074768066,
        -0.000963058031629771,
        -3.410369799894397e-07
      ],
      "type": "VEC3"
    },
    {
      "bufferView": 5,
      "componentType": 5126,
      "count": 504,
      "type": "VEC3"
    },
    {
      "bufferView": 6,
      "componentType": 5126,
      "count": 504,
      "type": "VEC2"
    },
    {
      "bufferView": 7,
      "componentType": 5125,
      "count": 981,
      "type": "SCALAR"
    },
    {
      "bufferView": 8,
      "componentType": 5126,
      "count": 446,
      "max": [
        0.25535860657691956,
        1.1238704919815063,
        0.3670896589756012
      ],
      "min": [
        -0.25560975074768066,
        -0.0008358978084288538,
        -3.410369799894397e-07
      ],
      "type": "VEC3"
    },
    {
      "bufferView": 9,
      "componentType": 5126,
      "count": 446,
      "type": "VEC3"
    },
    {
      "bufferView": 10,
      "componentType": 5126,
      "count": 446,
      "type": "VEC2"
    },
    {
      "bufferView": 11,
      "componentType": 5125,
      "count": 735,
      "type": "SCALAR"
    },
    {
      "bufferView": 12,
      "componentType": 5126,
      "count": 268,
      "max": [
        0.2553308308124542,
        1.12626314163208,
        0.36707621812820435
      ],
      "min": [
        -0.2555340528488159,
        -0.0196274071931839,
        -1.6648678879960244e-08
      ],
      "type": "VEC3"
    },
    {
      "bufferView": 13,
      "componentType": 5126,
      "count": 268,
      "type": "VEC3"
    },
    {
      "bufferView": 14,
      "componentType": 5126,
      "count": 268,
      "type": "VEC2"
    },
    {
      "bufferView": 15,
      "componentType": 5125,
      "count": 366,
      "type": "SCALAR"
    },
    {
      "bufferView": 16,
      "componentType": 5126,
      "count": 205,
      "max": [
        0.2553308308124542,
        1.12626314163208,
        0.36707621812820435
      ],
      "min": [
        -0.2555340528488159,
        -0.0196274071931839,
        2.4329853687277136e-09
      ],
      "type": "VEC3"
    },
    {
      "bufferView": 17,
      "componentType": 5126,
      "count": 205,
      "type": "VEC3"
    },
    {
      "bufferView": 18,
      "componentType": 5126,
      "count": 205,
      "type": "VEC2"
    },
    {
      "bufferView": 19,
      "componentType": 5125,
      "count": 273,
      "type": "SCALAR"
    },
    {
      "bufferView": 20,
      "componentType": 5126,
      "count": 107,
      "max": [
        0.2553088068962097,
        1.1266659498214722,
        0.3669041693210602
      ],
      "min": [
        -0.2555122673511505,
        -0.015171952545642853,
        -3.732130426215008e-05
      ],
      "type": "VEC3"
    },
    {
      "bufferView": 21,
      "componentType": 5126,
      "count": 107,
      "type": "VEC3"
    },
    {
      "bufferView": 22,
      "componentType": 5126,
      "count": 107,
      "type": "VEC2"
    },
    {
      "bufferView": 23,
      "componentType": 5125,
      "count": 138,
      "type": "SCALAR"
    },
    {
      "bufferView": 24,
      "componentType": 5126,
      "count": 82,
      "max": [
        0.2553088068962097,
        1.1266659498214722,
        0.35530516505241394
      ],
      "min": [
        -0.2555122673511505,
        -0.015171952545642853,
        -3.732130426215008e-05
      ],
      "type": "VEC3"
    },
    {
      "bufferView": 25,
      "componentType": 5126,
      "count": 82,
      "type": "VEC3"
    },
    {
      "bufferView": 26,
      "componentType": 5126,
      "count": 82,
      "type": "VEC2"
    },
    {
      "bufferView": 27,
      "componentType": 5125,
      "count": 102,
      "type": "SCALAR"
    }
  ],
  "asset": {
    "generator": "BlitzRemesher",
    "version": "2.0"
  },
  "bufferViews": [
    {
      "buffer": 0,
      "byteLength": 6576,
      "byteOffset": 0
    },
    {
      "buffer": 0,
      "byteLength": 6576,
      "byteOffset": 6576
    },
    {
      "buffer": 0,
      "byteLength": 4384,
      "byteOffset": 13152
    },
    {
      "buffer": 0,
      "byteLength": 6288,
      "byteOffset": 17536
    },
    {
      "buffer": 0,
      "byteLength": 6048,
      "byteOffset": 23824
    },
    {
      "buffer": 0,
      "byteLength": 6048,
      "byteOffset": 29872
    },
    {
      "buffer": 0,
      "byteLength": 4032,
      "byteOffset": 35920
    },
    {
      "buffer": 0,
      "byteLength": 3924,
      "byteOffset": 39952
    },
    {
      "buffer": 0,
      "byteLength": 5352,
      "byteOffset": 43876
    },
    {
      "buffer": 0,
      "byteLength": 5352,
      "byteOffset": 49228
    },
    {
      "buffer": 0,
      "byteLength": 3568,
      "byteOffset": 54580
    },
    {
      "buffer": 0,
      "byteLength": 2940,
      "byteOffset": 58148
    },
    {
      "buffer": 0,
      "byteLength": 3216,
      "byteOffset": 61088
    },
    {
      "buffer": 0,
      "byteLength": 3216,
      "byteOffset": 64304
    },
    {
      "buffer": 0,
      "byteLength": 2144,
      "byteOffset": 67520
    },
    {
      "buffer": 0,
      "byteLength": 1464,
      "byteOffset": 69664
    },
    {
      "buffer": 0,
      "byteLength": 2460,
      "byteOffset": 71128
    },
    {
      "buffer": 0,
      "byteLength": 2460,
      "byteOffset": 73588
    },
    {
      "buffer": 0,
      "byteLength": 1640,
      "byteOffset": 76048
    },
    {
      "buffer": 0,
      "byteLength": 1092,
      "byteOffset": 77688
    },
    {
      "buffer": 0,
      "byteLength": 1284,
      "byteOffset": 78780
    },
    {
      "buffer": 0,
      "byteLength": 1284,
      "byteOffset": 80064
    },
    {
      "buffer": 0,
      "byteLength": 856,
      "byteOffset": 81348
    },
    {
      "buffer": 0,
      "byteLength": 552,
      "byteOffset": 82204
    },
    {
      "buffer": 0,
      "byteLength": 984,
      "byteOffset": 82756
    },
    {
      "buffer": 0,
      "byteLength": 984,
      "byteOffset": 83740
    },
    {
      "buffer": 0,
      "byteLength": 656,
      "byteOffset": 84724
    },
    {
      "buffer": 0,
      "byteLength": 408,
      "byteOffset": 85380
    }
  ],
  "buffers": [
    {
      "byteLength": 85788,
      "uri": "chain.bin"
    }
  ],
  "materials": [
    {
      "doubleSided": true,
      "name": "material_0"
    }
  ],
  "meshes": [
    {
      "name": "LOD0",
      "primitives": [
        {
          "attributes": {
            "NORMAL": 1,
            "POSITION": 0,
            "TEXCOORD_0": 2
          },
          "indices": 3,
          "material": 0,
          "mode": 4
        }
      ]
    },
    {
      "name": "LOD1",
      "primitives": [
        {
          "attributes": {
            "NORMAL": 5,
            "POSITION": 4,
            "TEXCOORD_0": 6
          },
          "indices": 7,
          "material": 0,
          "mode": 4
        }
      ]
    },
    {
      "name": "LOD2",
      "primitives": [
        {
          "attributes": {
            "NORMAL": 9,
            "POSITION": 8,
            "TEXCOORD_0": 10
          },
          "indices": 11,
          "material": 0,
          "mode": 4
        }
      ]
    },
    {
      "name": "LOD4",
      "primitives": [
        {
          "attributes": {
            "NORMAL": 13,
            "POSITION": 12,
            "TEXCOORD_0": 14
          },
          "indices": 15,
          "material": 0,
          "mode": 4
        }
      ]
    },
    {
      "name": "LOD5",
      "primitives": [
        {
          "attributes": {
            "NORMAL": 17,
            "POSITION": 16,
            "TEXCOORD_0": 18
          },
          "indices": 19,
          "material": 0,
          "mode": 4
        }
      ]
    },
    {
      "name": "LOD6",
      "primitives": [
        {
          "attributes": {
            "NORMAL": 21,
            "POSITION": 20,
            "TEXCOORD_0": 22
          },
          "indices": 23,
          "material": 0,
          "mode": 4
        }
      ]
    },
    {
      "name": "LOD7",
      "primitives": [
        {
          "attributes": {
            "NORMAL": 25,
            "POSITION": 24,
            "TEXCOORD_0": 26
          },
          "indices": 27,
          "material": 0,
          "mode": 4
        }
      ]
    }
  ],
  "nodes": [
    {
      "mesh": 0,
      "name": "LOD0"
    },
    {
      "mesh": 1,
      "name": "LOD1"
    },
    {
      "mesh": 2,
      "name": "LOD2"
    },
    {
      "mesh": 2,
      "name": "LOD3"
    },
    {
      "mesh": 3,
      "name": "LOD4"
    },
    {
      "mesh": 4,
      "name": "LOD5"
    },
    {
      "mesh": 5,
      "name": "LOD6"
    },
    {
      "mesh": 6,
      "name": "LOD7"
    }
  ],
  "scene": 0,
  "scenes": [
    {
      "nodes": [
        0
      ]
    }
  ]
}
