{
  "accessors": [
    {
      "bufferView": 0,
      "componentType": 5126,
      "count": 1847,
      "max": [
        0.12181732803583145,
        0.1958579421043396,
        0.12623243033885956
      ],
      "min": [
        -0.12468242645263672,
        -0.006055276375263929,
        -0.1250573843717575
      ],
      "type": "VEC3"
    },
    {
      "bufferView": 1,
      "componentType": 5126,
      "count": 1847,
      "type": "VEC3"
    },
    {
      "bufferView": 2,
      "componentType": 5126,
      "count": 1847,
      "type": "VEC2"
    },
    {
      "bufferView": 3,
      "componentType": 5125,
      "count": 9912,
      "type": "SCALAR"
    },
    {
      "bufferView": 4,
      "componentType": 5125,
      "count": 8922,
      "type": "SCALAR"
    },
    {
      "bufferView": 5,
      "componentType": 5125,
      "count": 4464,
      "type": "SCALAR"
    },
    {
      "bufferView": 6,
      "componentType": 5125,
      "count": 2232,
      "type": "SCALAR"
    },
    {
      "bufferView": 7,
      "componentType": 5126,
      "count": 212,
      "max": [
        0.12168795615434647,
        0.19672858715057373,
        0.12560756504535675
      ],
      "min": [
        -0.12371741235256195,
        -0.005357886664569378,
        -0.12542040646076202
      ],
      "type": "VEC3"
    },
    {
      "bufferView": 8,
      "componentType": 5126,
      "count": 212,
      "type": "VEC3"
    },
    {
      "bufferView": 9,
      "componentType": 5126,
      "count": 212,
      "type": "VEC2"
    },
    {
      "bufferView": 10,
      "componentType": 5125,
      "count": 324,
      "type": "SCALAR"
    },
    {
      "bufferView": 11,
      "componentType": 5126,
      "count": 95,
      "max": [
        0.12230686843395233,
        0.19755929708480835,
        0.13286389410495758
      ],
      "min": [
        -0.12428031116724014,
        -0.0037557249888777733,
        -0.12110166996717453
      ],
      "type": "VEC3"
    },
    {
      "bufferView": 12,
      "componentType": 5126,
      "count": 95,
      "type": "VEC3"
    },
    {
      "bufferView": 13,
      "componentType": 5126,
      "count": 95,
      "type": "VEC2"
    },
    {
      "bufferView": 14,
      "componentType": 5125,
      "count": 108,
      "type": "SCALAR"
    },
    {
      "bufferView": 15,
      "componentType": 5126,
      "count": 48,
      "max": [
        0.1262219399213791,
        0.18490350246429443,
        0.09096023440361023
      ],
      "min": [
        -0.13337922096252441,
        -0.0018021533032879233,
        -0.12783974409103394
      ],
      "type": "VEC3"
    },
    {
      "bufferView": 16,
      "componentType": 5126,
      "count": 48,
      "type": "VEC3"
    },
    {
      "bufferView": 17,
      "componentType": 5126,
      "count": 48,
      "type": "VEC2"
    },
    {
      "bufferView": 18,
      "componentType": 5125,
      "count": 48,
      "type": "SCALAR"
    }
  ],
  "asset": {
    "generator": "BlitzRemesher",
    "version": "2.0"
  },
  "bufferViews": [
    {
      "buffer": 0,
      "byteLength": 22164,
      "byteOffset": 0
    },
    {
      "buffer": 0,
      "byteLength": 22164,
      "byteOffset": 22164
    },
    {
      "buffer": 0,
      "byteLength": 14776,
      "byteOffset": 44328
    },
    {
      "buffer": 0,
      "byteLength": 39648,
      "byteOffset": 59104
    },
    {
      "buffer": 0,
      "byteLength": 35688,
      "byteOffset": 98752
    },
    {
      "buffer": 0,
      "byteLength": 17856,
      "byteOffset": 134440
    },
    {
      "buffer": 0,
      "byteLength": 8928,
      "byteOffset": 152296
    },
    {
      "buffer": 0,
      "byteLength": 2544,
      "byteOffset": 161224
    },
    {
      "buffer": 0,
      "byteLength": 2544,
      "byteOffset": 163768
    },
    {
      "buffer": 0,
      "byteLength": 1696,
      "byteOffset": 166312
    },
    {
      "buffer": 0,
      "byteLength": 1296,
      "byteOffset": 168008
    },
    {
      "buffer": 0,
      "byteLength": 1140,
      "byteOffset": 169304
    },
    {
      "buffer": 0,
      "byteLength": 1140,
      "byteOffset": 170444
    },
    {
      "buffer": 0,
      "byteLength": 760,
      "byteOffset": 171584
    },
    {
      "buffer": 0,
      "byteLength": 432,
      "byteOffset": 172344
    },
    {
      "buffer": 0,
      "byteLength": 576,
      "byteOffset": 172776
    },
    {
      "buffer": 0,
      "byteLength": 576,
      "byteOffset": 173352
    },
    {
      "buffer": 0,
      "byteLength": 384,
      "byteOffset": 173928
    },
    {
      "buffer": 0,
      "byteLength": 192,
      "byteOffset": 174312
    }
  ],
  "buffers": [
    {
      "byteLength": 174504,
      "uri": "chain.bin"
    }
  ],
  "materials": [
    {
      "doubleSided": true,
      "name": "material_0"
    }
  ],
  "meshes": [
    {
      "name": "LOD0",
      "primitives": [
        {
          "attributes": {
            "NORMAL": 1,
            "POSITION": 0,
            "TEXCOORD_0": 2
          },
          "indices": 3,
          "material": 0,
          "mode": 4
        }
      ]
    },
    {
      "name": "LOD1",
      "primitives": [
        {
          "attributes": {
            "NORMAL": 1,
            "POSITION": 0,
            "TEXCOORD_0": 2
          },
          "indices": 4,
          "material": 0,
          "mode": 4
        }
      ]
    },
    {
      "name": "LOD2",
      "primitives": [
        {
          "attributes": {
            "NORMAL": 1,
            "POSITION": 0,
            "TEXCOORD_0": 2
          },
          "indices": 5,
          "material": 0,
          "mode": 4
        }
      ]
    },
    {
      "name": "LOD3",
      "primitives": [
        {
          "attributes": {
            "NORMAL": 1,
            "POSITION": 0,
            "TEXCOORD_0": 2
          },
          "indices": 6,
          "material": 0,
          "mode": 4
        }
      ]
    },
    {
      "name": "LOD4",
      "primitives": [
        {
          "attributes": {
            "NORMAL": 8,
            "POSITION": 7,
            "TEXCOORD_0": 9
          },
          "indices": 10,
          "material": 0,
          "mode": 4
        }
      ]
    },
    {
      "name": "LOD5",
      "primitives": [
        {
          "attributes": {
            "NORMAL": 12,
            "POSITION": 11,
            "TEXCOORD_0": 13
          },
          "indices": 14,
          "material": 0,
          "mode": 4
        }
      ]
    },
    {
      "name": "LOD7",
      "primitives": [
        {
          "attributes": {
            "NORMAL": 16,
            "POSITION": 15,
            "TEXCOORD_0": 17
          },
          "indices": 18,
          "material": 0,
          "mode": 4
        }
      ]
    }
  ],
  "nodes": [
    {
      "mesh": 0,
      "name": "LOD0"
    },
    {
      "mesh": 1,
      "name": "LOD1"
    },
    {
      "mesh": 2,
      "name": "LOD2"
    },
    {
      "mesh": 3,
      "name": "LOD3"
    },
    {
      "mesh": 4,
      "name": "LOD4"
    },
    {
      "mesh": 5,
      "name": "LOD5"
    },
    {
      "mesh": 5,
      "name": "LOD6"
    },
    {
      "mesh": 6,
      "name": "LOD7"
    }
  ],
  "scene": 0,
  "scenes": [
    {
      "nodes": [
        0
      ]
    }
  ]
}
