{
  "accessors": [
    {
      "bufferView": 0,
      "componentType": 5126,
      "count": 16396,
      "max": [
        0.45009371638298035,
        2.3323476314544678,
        0.938514769077301
      ],
      "min": [
        -2.2611024379730225,
        -0.13961930572986603,
        -1.188185453414917
      ],
      "type": "VEC3"
    },
    {
      "bufferView": 1,
      "componentType": 5126,
      "count": 16396,
      "type": "VEC3"
    },
    {
      "bufferView": 2,
      "componentType": 5126,
      "count": 16396,
      "type": "VEC2"
    },
    {
      "bufferView": 3,
      "componentType": 5125,
      "count": 88698,
      "type": "SCALAR"
    },
    {
      "bufferView": 4,
      "componentType": 5125,
      "count": 79827,
      "type": "SCALAR"
    },
    {
      "bufferView": 5,
      "componentType": 5125,
      "count": 39912,
      "type": "SCALAR"
    },
    {
      "bufferView": 6,
      "componentType": 5126,
      "count": 2735,
      "max": [
        0.44850394129753113,
        2.3303160667419434,
        0.922703206539154
      ],
      "min": [
        -2.256596565246582,
        -0.13837547600269318,
        -1.1739550828933716
      ],
      "type": "VEC3"
    },
    {
      "bufferView": 7,
      "componentType": 5126,
      "count": 2735,
      "type": "VEC3"
    },
    {
      "bufferView": 8,
      "componentType": 5126,
      "count": 2735,
      "type": "VEC2"
    },
    {
      "bufferView": 9,
      "componentType": 5125,
      "count": 3114,
      "type": "SCALAR"
    },
    {
      "bufferView": 10,
      "componentType": 5126,
      "count": 316,
      "max": [
        0.4061443507671356,
        2.3277337551116943,
        0.9118865728378296
      ],
      "min": [
        -2.2451136112213135,
        -0.13837547600269318,
        -1.1133254766464233
      ],
      "type": "VEC3"
    },
    {
      "bufferView": 11,
      "componentType": 5126,
      "count": 316,
      "type": "VEC3"
    },
    {
      "bufferView": 12,
      "componentType": 5126,
      "count": 316,
      "type": "VEC2"
    },
    {
      "bufferView": 13,
      "componentType": 5125,
      "count": 378,
      "type": "SCALAR"
    },
    {
      "bufferView": 14,
      "componentType": 5126,
      "count": 134,
      "max": [
        0.3116353452205658,
        2.3277337551116943,
        0.9118865728378296
      ],
      "min": [
        -2.2451136112213135,
        -0.13837547600269318,
        -1.1133254766464233
      ],
      "type": "VEC3"
    },
    {
      "bufferView": 15,
      "componentType": 5126,
      "count": 134,
      "type": "VEC3"
    },
    {
      "bufferView": 16,
      "componentType": 5126,
      "count": 134,
      "type": "VEC2"
    },
    {
      "bufferView": 17,
      "componentType": 5125,
      "count": 189,
      "type": "SCALAR"
    }
  ],
  "asset": {
    "generator": "BlitzRemesher",
    "version": "2.0"
  },
  "bufferViews": [
    {
      "buffer": 0,
      "byteLength": 196752,
      "byteOffset": 0
    },
    {
      "buffer": 0,
      "byteLength": 196752,
      "byteOffset": 196752
    },
    {
      "buffer": 0,
      "byteLength": 131168,
      "byteOffset": 393504
    },
    {
      "buffer": 0,
      "byteLength": 354792,
      "byteOffset": 524672
    },
    {
      "buffer": 0,
      "byteLength": 319308,
      "byteOffset": 879464
    },
    {
      "buffer": 0,
      "byteLength": 159648,
      "byteOffset": 1198772
    },
    {
      "buffer": 0,
      "byteLength": 32820,
      "byteOffset": 1358420
    },
    {
      "buffer": 0,
      "byteLength": 32820,
      "byteOffset": 1391240
    },
    {
      "buffer": 0,
      "byteLength": 21880,
      "byteOffset": 1424060
    },
    {
      "buffer": 0,
      "byteLength": 12456,
      "byteOffset": 1445940
    },
    {
      "buffer": 0,
      "byteLength": 3792,
      "byteOffset": 1458396
    },
    {
      "buffer": 0,
      "byteLength": 3792,
      "byteOffset": 1462188
    },
    {
      "buffer": 0,
      "byteLength": 2528,
      "byteOffset": 1465980
    },
    {
      "buffer": 0,
      "byteLength": 1512,
      "byteOffset": 1468508
    },
    {
      "buffer": 0,
      "byteLength": 1608,
      "byteOffset": 1470020
    },
    {
      "buffer": 0,
      "byteLength": 1608,
      "byteOffset": 1471628
    },
    {
      "buffer": 0,
      "byteLength": 1072,
      "byteOffset": 1473236
    },
    {
      "buffer": 0,
      "byteLength": 756,
      "byteOffset": 1474308
    }
  ],
  "buffers": [
    {
      "byteLength": 1475064,
      "uri": "chain.bin"
    }
  ],
  "materials": [
    {
      "doubleSided": true,
      "name": "material_0"
    }
  ],
  "meshes": [
    {
      "name": "LOD0",
      "primitives": [
        {
          "attributes": {
            "NORMAL": 1,
            "POSITION": 0,
            "TEXCOORD_0": 2
          },
          "indices": 3,
          "material": 0,
          "mode": 4
        }
      ]
    },
    {
      "name": "LOD1",
      "primitives": [
        {
          "attributes": {
            "NORMAL": 1,
            "POSITION": 0,
            "TEXCOORD_0": 2
          },
          "indices": 4,
          "material": 0,
          "mode": 4
        }
      ]
    },
    {
      "name": "LOD3",
      "primitives": [
        {
          "attributes": {
            "NORMAL": 1,
            "POSITION": 0,
            "TEXCOORD_0": 2
          },
          "indices": 5,
          "material": 0,
          "mode": 4
        }
      ]
    },
    {
      "name": "LOD4",
      "primitives": [
        {
          "attributes": {
            "NORMAL": 7,
            "POSITION": 6,
            "TEXCOORD_0": 8
          },
          "indices": 9,
          "material": 0,
          "mode": 4
        }
      ]
    },
    {
      "name": "LOD6",
      "primitives": [
        {
          "attributes": {
            "NORMAL": 11,
            "POSITION": 10,
            "TEXCOORD_0": 12
          },
          "indices": 13,
          "material": 0,
          "mode": 4
        }
      ]
    },
    {
      "name": "LOD7",
      "primitives": [
        {
          "attributes": {
            "NORMAL": 15,
            "POSITION": 14,
            "TEXCOORD_0": 16
          },
          "indices": 17,
          "material": 0,
          "mode": 4
        }
      ]
    }
  ],
  "nodes": [
    {
      "mesh": 0,
      "name": "LOD0"
    },
    {
      "mesh": 1,
      "name": "LOD1"
    },
    {
      "mesh": 1,
      "name": "LOD2"
    },
    {
      "mesh": 2,
      "name": "LOD3"
    },
    {
      "mesh": 3,
      "name": "LOD4"
    },
    {
      "mesh": 3,
      "name": "LOD5"
    },
    {
      "mesh": 4,
      "name": "LOD6"
    },
    {
      "mesh": 5,
      "name": "LOD7"
    }
  ],
  "scene": 0,
  "scenes": [
    {
      "nodes": [
        0
      ]
    }
  ]
}
