{
  "accessors": [
    {
      "bufferView": 0,
      "componentType": 5126,
      "count": 7361,
      "max": [
        0.06778253614902496,
        0.04649100825190544,
        0.04096278175711632
      ],
      "min": [
        -0.07169974595308304,
        -2.066521847154945e-05,
        -0.033580198884010315
      ],
      "type": "VEC3"
    },
    {
      "bufferView": 1,
      "componentType": 5126,
      "count": 7361,
      "type": "VEC3"
    },
    {
      "bufferView": 2,
      "componentType": 5126,
      "count": 7361,
      "type": "VEC2"
    },
    {
      "bufferView": 3,
      "componentType": 5125,
      "count": 37494,
      "type": "SCALAR"
    },
    {
      "bufferView": 4,
      "componentType": 5125,
      "count": 33744,
      "type": "SCALAR"
    },
    {
      "bufferView": 5,
      "componentType": 5125,
      "count": 16872,
      "type": "SCALAR"
    },
    {
      "bufferView": 6,
      "componentType": 5126,
      "count": 1182,
      "max": [
        0.06730268895626068,
        0.04585082083940506,
        0.039942871779203415
      ],
      "min": [
        -0.07111479341983795,
        -0.00048194010742008686,
        -0.03438200801610947
      ],
      "type": "VEC3"
    },
    {
      "bufferView": 7,
      "componentType": 5126,
      "count": 1182,
      "type": "VEC3"
    },
    {
      "bufferView": 8,
      "componentType": 5126,
      "count": 1182,
      "type": "VEC2"
    },
    {
      "bufferView": 9,
      "componentType": 5125,
      "count": 1290,
      "type": "SCALAR"
    },
    {
      "bufferView": 10,
      "componentType": 5126,
      "count": 183,
      "max": [
        0.05266541987657547,
        0.04415157437324524,
        0.03265223652124405
      ],
      "min": [
        -0.0529201403260231,
        -0.0029650386422872543,
        -0.030142009258270264
      ],
      "type": "VEC3"
    },
    {
      "bufferView": 11,
      "componentType": 5126,
      "count": 183,
      "type": "VEC3"
    },
    {
      "bufferView": 12,
      "componentType": 5126,
      "count": 183,
      "type": "VEC2"
    },
    {
      "bufferView": 13,
      "componentType": 5125,
      "count": 186,
      "type": "SCALAR"
    }
  ],
  "asset": {
    "generator": "BlitzRemesher",
    "version": "2.0"
  },
  "bufferViews": [
    {
      "buffer": 0,
      "byteLength": 88332,
      "byteOffset": 0
    },
    {
      "buffer": 0,
      "byteLength": 88332,
      "byteOffset": 88332
    },
    {
      "buffer": 0,
      "byteLength": 58888,
      "byteOffset": 176664
    },
    {
      "buffer": 0,
      "byteLength": 149976,
      "byteOffset": 235552
    },
    {
      "buffer": 0,
      "byteLength": 134976,
      "byteOffset": 385528
    },
    {
      "buffer": 0,
      "byteLength": 67488,
      "byteOffset": 520504
    },
    {
      "buffer": 0,
      "byteLength": 14184,
      "byteOffset": 587992
    },
    {
      "buffer": 0,
      "byteLength": 14184,
      "byteOffset": 602176
    },
    {
      "buffer": 0,
      "byteLength": 9456,
      "byteOffset": 616360
    },
    {
      "buffer": 0,
      "byteLength": 5160,
      "byteOffset": 625816
    },
    {
      "buffer": 0,
      "byteLength": 2196,
      "byteOffset": 630976
    },
    {
      "buffer": 0,
      "byteLength": 2196,
      "byteOffset": 633172
    },
    {
      "buffer": 0,
      "byteLength": 1464,
      "byteOffset": 635368
    },
    {
      "buffer": 0,
      "byteLength": 744,
      "byteOffset": 636832
    }
  ],
  "buffers": [
    {
      "byteLength": 637576,
      "uri": "chain.bin"
    }
  ],
  "materials": [
    {
      "doubleSided": true,
      "name": "material_0"
    }
  ],
  "meshes": [
    {
      "name": "LOD0",
      "primitives": [
        {
          "attributes": {
            "NORMAL": 1,
            "POSITION": 0,
            "TEXCOORD_0": 2
          },
          "indices": 3,
          "material": 0,
          "mode": 4
        }
      ]
    },
    {
      "name": "LOD1",
      "primitives": [
        {
          "attributes": {
            "NORMAL": 1,
            "POSITION": 0,
            "TEXCOORD_0": 2
          },
          "indices": 4,
          "material": 0,
          "mode": 4
        }
      ]
    },
    {
      "name": "LOD3",
      "primitives": [
        {
          "attributes": {
            "NORMAL": 1,
            "POSITION": 0,
            "TEXCOORD_0": 2
          },
          "indices": 5,
          "material": 0,
          "mode": 4
        }
      ]
    },
    {
      "name": "LOD4",
      "primitives": [
        {
          "attributes": {
            "NORMAL": 7,
            "POSITION": 6,
            "TEXCOORD_0": 8
          },
          "indices": 9,
          "material": 0,
          "mode": 4
        }
      ]
    },
    {
      "name": "LOD7",
      "primitives": [
        {
          "attributes": {
            "NORMAL": 11,
            "POSITION": 10,
            "TEXCOORD_0": 12
          },
          "indices": 13,
          "material": 0,
          "mode": 4
        }
      ]
    }
  ],
  "nodes": [
    {
      "mesh": 0,
      "name": "LOD0"
    },
    {
      "mesh": 1,
      "name": "LOD1"
    },
    {
      "mesh": 1,
      "name": "LOD2"
    },
    {
      "mesh": 2,
      "name": "LOD3"
    },
    {
      "mesh": 3,
      "name": "LOD4"
    },
    {
      "mesh": 3,
      "name": "LOD5"
    },
    {
      "mesh": 3,
      "name": "LOD6"
    },
    {
      "mesh": 4,
      "name": "LOD7"
    }
  ],
  "scene": 0,
  "scenes": [
    {
      "nodes": [
        0
      ]
    }
  ]
}
