{
  "accessors": [
    {
      "bufferView": 0,
      "componentType": 5126,
      "count": 1847,
      "max": [
        0.12181732803583145,
        0.1958579421043396,
        0.12623243033885956
      ],
      "min": [
        -0.12468242645263672,
        -0.006055276375263929,
        -0.1250573843717575
      ],
      "type": "VEC3"
    },
    {
      "bufferView": 1,
      "componentType": 5126,
      "count": 1847,
      "type": "VEC3"
    },
    {
      "bufferView": 2,
      "componentType": 5126,
      "count": 1847,
      "type": "VEC2"
    },
    {
      "bufferView": 3,
      "componentType": 5125,
      "count": 9912,
      "type": "SCALAR"
    },
    {
      "bufferView": 4,
      "componentType": 5125,
      "count": 9900,
      "type": "SCALAR"
    },
    {
      "bufferView": 5,
      "componentType": 5125,
      "count": 9048,
      "type": "SCALAR"
    }
  ],
  "asset": {
    "generator": "BlitzRemesher",
    "version": "2.0"
  },
  "bufferViews": [
    {
      "buffer": 0,
      "byteLength": 22164,
      "byteOffset": 0
    },
    {
      "buffer": 0,
      "byteLength": 22164,
      "byteOffset": 22164
    },
    {
      "buffer": 0,
      "byteLength": 14776,
      "byteOffset": 44328
    },
    {
      "buffer": 0,
      "byteLength": 39648,
      "byteOffset": 59104
    },
    {
      "buffer": 0,
      "byteLength": 39600,
      "byteOffset": 98752
    },
    {
      "buffer": 0,
      "byteLength": 36192,
      "byteOffset": 138352
    }
  ],
  "buffers": [
    {
      "byteLength": 174544,
      "uri": "chain.bin"
    }
  ],
  "materials": [
    {
      "doubleSided": true,
      "name": "material_0"
    }
  ],
  "meshes": [
    {
      "name": "LOD0",
      "primitives": [
        {
          "attributes": {
            "NORMAL": 1,
            "POSITION": 0,
            "TEXCOORD_0": 2
          },
          "indices": 3,
          "material": 0,
          "mode": 4
        }
      ]
    },
    {
      "name": "LOD1",
      "primitives": [
        {
          "attributes": {
            "NORMAL": 1,
            "POSITION": 0,
            "TEXCOORD_0": 2
          },
          "indices": 4,
          "material": 0,
          "mode": 4
        }
      ]
    },
    {
      "name": "LOD7",
      "primitives": [
        {
          "attributes": {
            "NORMAL": 1,
            "POSITION": 0,
            "TEXCOORD_0": 2
          },
          "indices": 5,
          "material": 0,
          "mode": 4
        }
      ]
    }
  ],
  "nodes": [
    {
      "mesh": 0,
      "name": "LOD0"
    },
    {
      "mesh": 1,
      "name": "LOD1"
    },
    {
      "mesh": 1,
      "name": "LOD2"
    },
    {
      "mesh": 1,
      "name": "LOD3"
    },
    {
      "mesh": 1,
      "name": "LOD4"
    },
    {
      "mesh": 1,
      "name": "LOD5"
    },
    {
      "mesh": 1,
      "name": "LOD6"
    },
    {
      "mesh": 2,
      "name": "LOD7"
    }
  ],
  "scene": 0,
  "scenes": [
    {
      "nodes": [
        0
      ]
    }
  ]
}
