{
  "accessors": [
    {
      "bufferView": 0,
      "componentType": 5126,
      "count": 100707,
      "max": [
        0.5196322202682495,
        0.39996740221977234,
        0.17264190316200256
      ],
      "min": [
        -0.5194975137710571,
        -0.3998900055885315,
        -0.17257119715213776
      ],
      "type": "VEC3"
    },
    {
      "bufferView": 1,
      "componentType": 5126,
      "count": 100707,
      "type": "VEC3"
    },
    {
      "bufferView": 2,
      "componentType": 5126,
      "count": 100707,
      "type": "VEC2"
    },
    {
      "bufferView": 3,
      "componentType": 5121,
      "count": 100707,
      "normalized": true,
      "type": "VEC4"
    },
    {
      "bufferView": 4,
      "componentType": 5125,
      "count": 450000,
      "type": "SCALAR"
    },
    {
      "bufferView": 5,
      "componentType": 5126,
      "count": 36452,
      "max": [
        0.5204786658287048,
        0.39976242184638977,
        0.171798437833786
      ],
      "min": [
        -0.5202838182449341,
        -0.4004810154438019,
        -0.17297518253326416
      ],
      "type": "VEC3"
    },
    {
      "bufferView": 6,
      "componentType": 5126,
      "count": 36452,
      "type": "VEC3"
    },
    {
      "bufferView": 7,
      "componentType": 5126,
      "count": 36452,
      "type": "VEC2"
    },
    {
      "bufferView": 8,
      "componentType": 5121,
      "count": 36452,
      "normalized": true,
      "type": "VEC4"
    },
    {
      "bufferView": 9,
      "componentType": 5125,
      "count": 46002,
      "type": "SCALAR"
    },
    {
      "bufferView": 10,
      "componentType": 5126,
      "count": 20011,
      "max": [
        0.5198715925216675,
        0.4010407328605652,
        0.1714811474084854
      ],
      "min": [
        -0.5207951664924622,
        -0.4004810154438019,
        -0.17262709140777588
      ],
      "type": "VEC3"
    },
    {
      "bufferView": 11,
      "componentType": 5126,
      "count": 20011,
      "type": "VEC3"
    },
    {
      "bufferView": 12,
      "componentType": 5126,
      "count": 20011,
      "type": "VEC2"
    },
    {
      "bufferView": 13,
      "componentType": 5121,
      "count": 20011,
      "normalized": true,
      "type": "VEC4"
    },
    {
      "bufferView": 14,
      "componentType": 5125,
      "count": 23004,
      "type": "SCALAR"
    },
    {
      "bufferView": 15,
      "componentType": 5126,
      "count": 10471,
      "max": [
        0.5197702646255493,
        0.4010407328605652,
        0.17059598863124847
      ],
      "min": [
        -0.518458902835846,
        -0.40156295895576477,
        -0.17122778296470642
      ],
      "type": "VEC3"
    },
    {
      "bufferView": 16,
      "componentType": 5126,
      "count": 10471,
      "type": "VEC3"
    },
    {
      "bufferView": 17,
      "componentType": 5126,
      "count": 10471,
      "type": "VEC2"
    },
    {
      "bufferView": 18,
      "componentType": 5121,
      "count": 10471,
      "normalized": true,
      "type": "VEC4"
    },
    {
      "bufferView": 19,
      "componentType": 5125,
      "count": 11502,
      "type": "SCALAR"
    },
    {
      "bufferView": 20,
      "componentType": 5126,
      "count": 5238,
      "max": [
        0.513230562210083,
        0.4024769961833954,
        0.17379441857337952
      ],
      "min": [
        -0.5137138962745667,
        -0.4031723737716675,
        -0.16574515402317047
      ],
      "type": "VEC3"
    },
    {
      "bufferView": 21,
      "componentType": 5126,
      "count": 5238,
      "type": "VEC3"
    },
    {
      "bufferView": 22,
      "componentType": 5126,
      "count": 5238,
      "type": "VEC2"
    },
    {
      "bufferView": 23,
      "componentType": 5121,
      "count": 5238,
      "normalized": true,
      "type": "VEC4"
    },
    {
      "bufferView": 24,
      "componentType": 5125,
      "count": 5754,
      "type": "SCALAR"
    },
    {
      "bufferView": 25,
      "componentType": 5126,
      "count": 2236,
      "max": [
        0.5282286405563354,
        0.38023436069488525,
        0.16333436965942383
      ],
      "min": [
        -0.4888339340686798,
        -0.39706772565841675,
        -0.16589756309986115
      ],
      "type": "VEC3"
    },
    {
      "bufferView": 26,
      "componentType": 5126,
      "count": 2236,
      "type": "VEC3"
    },
    {
      "bufferView": 27,
      "componentType": 5126,
      "count": 2236,
      "type": "VEC2"
    },
    {
      "bufferView": 28,
      "componentType": 5121,
      "count": 2236,
      "normalized": true,
      "type": "VEC4"
    },
    {
      "bufferView": 29,
      "componentType": 5125,
      "count": 2568,
      "type": "SCALAR"
    },
    {
      "bufferView": 30,
      "componentType": 5126,
      "count": 2202,
      "max": [
        0.5282286405563354,
        0.38118040561676025,
        0.16333436965942383
      ],
      "min": [
        -0.4888339340686798,
        -0.39706772565841675,
        -0.16589756309986115
      ],
      "type": "VEC3"
    },
    {
      "bufferView": 31,
      "componentType": 5126,
      "count": 2202,
      "type": "VEC3"
    },
    {
      "bufferView": 32,
      "componentType": 5126,
      "count": 2202,
      "type": "VEC2"
    },
    {
      "bufferView": 33,
      "componentType": 5121,
      "count": 2202,
      "normalized": true,
      "type": "VEC4"
    },
    {
      "bufferView": 34,
      "componentType": 5125,
      "count": 2532,
      "type": "SCALAR"
    }
  ],
  "asset": {
    "generator": "BlitzRemesher",
    "version": "2.0"
  },
  "bufferViews": [
    {
      "buffer": 0,
      "byteLength": 1208484,
      "byteOffset": 0
    },
    {
      "buffer": 0,
      "byteLength": 1208484,
      "byteOffset": 1208484
    },
    {
      "buffer": 0,
      "byteLength": 805656,
      "byteOffset": 2416968
    },
    {
      "buffer": 0,
      "byteLength": 402828,
      "byteOffset": 3222624
    },
    {
      "buffer": 0,
      "byteLength": 1800000,
      "byteOffset": 3625452
    },
    {
      "buffer": 0,
      "byteLength": 437424,
      "byteOffset": 5425452
    },
    {
      "buffer": 0,
      "byteLength": 437424,
      "byteOffset": 5862876
    },
    {
      "buffer": 0,
      "byteLength": 291616,
      "byteOffset": 6300300
    },
    {
      "buffer": 0,
      "byteLength": 145808,
      "byteOffset": 6591916
    },
    {
      "buffer": 0,
      "byteLength": 184008,
      "byteOffset": 6737724
    },
    {
      "buffer": 0,
      "byteLength": 240132,
      "byteOffset": 6921732
    },
    {
      "buffer": 0,
      "byteLength": 240132,
      "byteOffset": 7161864
    },
    {
      "buffer": 0,
      "byteLength": 160088,
      "byteOffset": 7401996
    },
    {
      "buffer": 0,
      "byteLength": 80044,
      "byteOffset": 7562084
    },
    {
      "buffer": 0,
      "byteLength": 92016,
      "byteOffset": 7642128
    },
    {
      "buffer": 0,
      "byteLength": 125652,
      "byteOffset": 7734144
    },
    {
      "buffer": 0,
      "byteLength": 125652,
      "byteOffset": 7859796
    },
    {
      "buffer": 0,
      "byteLength": 83768,
      "byteOffset": 7985448
    },
    {
      "buffer": 0,
      "byteLength": 41884,
      "byteOffset": 8069216
    },
    {
      "buffer": 0,
      "byteLength": 46008,
      "byteOffset": 8111100
    },
    {
      "buffer": 0,
      "byteLength": 62856,
      "byteOffset": 8157108
    },
    {
      "buffer": 0,
      "byteLength": 62856,
      "byteOffset": 8219964
    },
    {
      "buffer": 0,
      "byteLength": 41904,
      "byteOffset": 8282820
    },
    {
      "buffer": 0,
      "byteLength": 20952,
      "byteOffset": 8324724
    },
    {
      "buffer": 0,
      "byteLength": 23016,
      "byteOffset": 8345676
    },
    {
      "buffer": 0,
      "byteLength": 26832,
      "byteOffset": 8368692
    },
    {
      "buffer": 0,
      "byteLength": 26832,
      "byteOffset": 8395524
    },
    {
      "buffer": 0,
      "byteLength": 17888,
      "byteOffset": 8422356
    },
    {
      "buffer": 0,
      "byteLength": 8944,
      "byteOffset": 8440244
    },
    {
      "buffer": 0,
      "byteLength": 10272,
      "byteOffset": 8449188
    },
    {
      "buffer": 0,
      "byteLength": 26424,
      "byteOffset": 8459460
    },
    {
      "buffer": 0,
      "byteLength": 26424,
      "byteOffset": 8485884
    },
    {
      "buffer": 0,
      "byteLength": 17616,
      "byteOffset": 8512308
    },
    {
      "buffer": 0,
      "byteLength": 8808,
      "byteOffset": 8529924
    },
    {
      "buffer": 0,
      "byteLength": 10128,
      "byteOffset": 8538732
    }
  ],
  "buffers": [
    {
      "byteLength": 8548860,
      "uri": "chain.bin"
    }
  ],
  "materials": [
    {
      "doubleSided": false,
      "name": "material_0"
    }
  ],
  "meshes": [
    {
      "name": "LOD0",
      "primitives": [
        {
          "attributes": {
            "COLOR_0": 3,
            "NORMAL": 1,
            "POSITION": 0,
            "TEXCOORD_0": 2
          },
          "indices": 4,
          "material": 0,
          "mode": 4
        }
      ]
    },
    {
      "name": "LOD1",
      "primitives": [
        {
          "attributes": {
            "COLOR_0": 8,
            "NORMAL": 6,
            "POSITION": 5,
            "TEXCOORD_0": 7
          },
          "indices": 9,
          "material": 0,
          "mode": 4
        }
      ]
    },
    {
      "name": "LOD3",
      "primitives": [
        {
          "attributes": {
            "COLOR_0": 13,
            "NORMAL": 11,
            "POSITION": 10,
            "TEXCOORD_0": 12
          },
          "indices": 14,
          "material": 0,
          "mode": 4
        }
      ]
    },
    {
      "name": "LOD4",
      "primitives": [
        {
          "attributes": {
            "COLOR_0": 18,
            "NORMAL": 16,
            "POSITION": 15,
            "TEXCOORD_0": 17
          },
          "indices": 19,
          "material": 0,
          "mode": 4
        }
      ]
    },
    {
      "name": "LOD5",
      "primitives": [
        {
          "attributes": {
            "COLOR_0": 23,
            "NORMAL": 21,
            "POSITION": 20,
            "TEXCOORD_0": 22
          },
          "indices": 24,
          "material": 0,
          "mode": 4
        }
      ]
    },
    {
      "name": "LOD6",
      "primitives": [
        {
          "attributes": {
            "COLOR_0": 28,
            "NORMAL": 26,
            "POSITION": 25,
            "TEXCOORD_0": 27
          },
          "indices": 29,
          "material": 0,
          "mode": 4
        }
      ]
    },
    {
      "name": "LOD7",
      "primitives": [
        {
          "attributes": {
            "COLOR_0": 33,
            "NORMAL": 31,
            "POSITION": 30,
            "TEXCOORD_0": 32
          },
          "indices": 34,
          "material": 0,
          "mode": 4
        }
      ]
    }
  ],
  "nodes": [
    {
      "mesh": 0,
      "name": "LOD0"
    },
    {
      "mesh": 1,
      "name": "LOD1"
    },
    {
      "mesh": 1,
      "name": "LOD2"
    },
    {
      "mesh": 2,
      "name": "LOD3"
    },
    {
      "mesh": 3,
      "name": "LOD4"
    },
    {
      "mesh": 4,
      "name": "LOD5"
    },
    {
      "mesh": 5,
      "name": "LOD6"
    },
    {
      "mesh": 6,
      "name": "LOD7"
    }
  ],
  "scene": 0,
  "scenes": [
    {
      "nodes": [
        0
      ]
    }
  ]
}
