{
  "accessors": [
    {
      "bufferView": 0,
      "componentType": 5126,
      "count": 11386,
      "max": [
        0.5120484828948975,
        0.324457585811615,
        0.6093222498893738
      ],
      "min": [
        -0.5474377274513245,
        -0.016527727246284485,
        -0.6898306608200073
      ],
      "type": "VEC3"
    },
    {
      "bufferView": 1,
      "componentType": 5126,
      "count": 11386,
      "type": "VEC3"
    },
    {
      "bufferView": 2,
      "componentType": 5126,
      "count": 11386,
      "type": "VEC2"
    },
    {
      "bufferView": 3,
      "componentType": 5125,
      "count": 50409,
      "type": "SCALAR"
    },
    {
      "bufferView": 4,
      "componentType": 5125,
      "count": 45369,
      "type": "SCALAR"
    },
    {
      "bufferView": 5,
      "componentType": 5125,
      "count": 22683,
      "type": "SCALAR"
    },
    {
      "bufferView": 6,
      "componentType": 5126,
      "count": 1906,
      "max": [
        0.5073748826980591,
        0.31211915612220764,
        0.6069968342781067
      ],
      "min": [
        -0.531995415687561,
        -0.01806442067027092,
        -0.6859741806983948
      ],
      "type": "VEC3"
    },
    {
      "bufferView": 7,
      "componentType": 5126,
      "count": 1906,
      "type": "VEC3"
    },
    {
      "bufferView": 8,
      "componentType": 5126,
      "count": 1906,
      "type": "VEC2"
    },
    {
      "bufferView": 9,
      "componentType": 5125,
      "count": 2151,
      "type": "SCALAR"
    },
    {
      "bufferView": 10,
      "componentType": 5126,
      "count": 239,
      "max": [
        0.5068578720092773,
        0.24288834631443024,
        0.5662413239479065
      ],
      "min": [
        -0.5065340399742126,
        0.0010132717434316874,
        -0.5847671031951904
      ],
      "type": "VEC3"
    },
    {
      "bufferView": 11,
      "componentType": 5126,
      "count": 239,
      "type": "VEC3"
    },
    {
      "bufferView": 12,
      "componentType": 5126,
      "count": 239,
      "type": "VEC2"
    },
    {
      "bufferView": 13,
      "componentType": 5125,
      "count": 243,
      "type": "SCALAR"
    },
    {
      "bufferView": 14,
      "componentType": 5126,
      "count": 121,
      "max": [
        0.5126856565475464,
        0.2093556523323059,
        0.40940234065055847
      ],
      "min": [
        -0.49582093954086304,
        0.0010132717434316874,
        -0.5327373147010803
      ],
      "type": "VEC3"
    },
    {
      "bufferView": 15,
      "componentType": 5126,
      "count": 121,
      "type": "VEC3"
    },
    {
      "bufferView": 16,
      "componentType": 5126,
      "count": 121,
      "type": "VEC2"
    },
    {
      "bufferView": 17,
      "componentType": 5125,
      "count": 123,
      "type": "SCALAR"
    }
  ],
  "asset": {
    "generator": "BlitzRemesher",
    "version": "2.0"
  },
  "bufferViews": [
    {
      "buffer": 0,
      "byteLength": 136632,
      "byteOffset": 0
    },
    {
      "buffer": 0,
      "byteLength": 136632,
      "byteOffset": 136632
    },
    {
      "buffer": 0,
      "byteLength": 91088,
      "byteOffset": 273264
    },
    {
      "buffer": 0,
      "byteLength": 201636,
      "byteOffset": 364352
    },
    {
      "buffer": 0,
      "byteLength": 181476,
      "byteOffset": 565988
    },
    {
      "buffer": 0,
      "byteLength": 90732,
      "byteOffset": 747464
    },
    {
      "buffer": 0,
      "byteLength": 22872,
      "byteOffset": 838196
    },
    {
      "buffer": 0,
      "byteLength": 22872,
      "byteOffset": 861068
    },
    {
      "buffer": 0,
      "byteLength": 15248,
      "byteOffset": 883940
    },
    {
      "buffer": 0,
      "byteLength": 8604,
      "byteOffset": 899188
    },
    {
      "buffer": 0,
      "byteLength": 2868,
      "byteOffset": 907792
    },
    {
      "buffer": 0,
      "byteLength": 2868,
      "byteOffset": 910660
    },
    {
      "buffer": 0,
      "byteLength": 1912,
      "byteOffset": 913528
    },
    {
      "buffer": 0,
      "byteLength": 972,
      "byteOffset": 915440
    },
    {
      "buffer": 0,
      "byteLength": 1452,
      "byteOffset": 916412
    },
    {
      "buffer": 0,
      "byteLength": 1452,
      "byteOffset": 917864
    },
    {
      "buffer": 0,
      "byteLength": 968,
      "byteOffset": 919316
    },
    {
      "buffer": 0,
      "byteLength": 492,
      "byteOffset": 920284
    }
  ],
  "buffers": [
    {
      "byteLength": 920776,
      "uri": "chain.bin"
    }
  ],
  "materials": [
    {
      "doubleSided": true,
      "name": "material_0"
    }
  ],
  "meshes": [
    {
      "name": "LOD0",
      "primitives": [
        {
          "attributes": {
            "NORMAL": 1,
            "POSITION": 0,
            "TEXCOORD_0": 2
          },
          "indices": 3,
          "material": 0,
          "mode": 4
        }
      ]
    },
    {
      "name": "LOD1",
      "primitives": [
        {
          "attributes": {
            "NORMAL": 1,
            "POSITION": 0,
            "TEXCOORD_0": 2
          },
          "indices": 4,
          "material": 0,
          "mode": 4
        }
      ]
    },
    {
      "name": "LOD3",
      "primitives": [
        {
          "attributes": {
            "NORMAL": 1,
            "POSITION": 0,
            "TEXCOORD_0": 2
          },
          "indices": 5,
          "material": 0,
          "mode": 4
        }
      ]
    },
    {
      "name": "LOD4",
      "primitives": [
        {
          "attributes": {
            "NORMAL": 7,
            "POSITION": 6,
            "TEXCOORD_0": 8
          },
          "indices": 9,
          "material": 0,
          "mode": 4
        }
      ]
    },
    {
      "name": "LOD6",
      "primitives": [
        {
          "attributes": {
            "NORMAL": 11,
            "POSITION": 10,
            "TEXCOORD_0": 12
          },
          "indices": 13,
          "material": 0,
          "mode": 4
        }
      ]
    },
    {
      "name": "LOD7",
      "primitives": [
        {
          "attributes": {
            "NORMAL": 15,
            "POSITION": 14,
            "TEXCOORD_0": 16
          },
          "indices": 17,
          "material": 0,
          "mode": 4
        }
      ]
    }
  ],
  "nodes": [
    {
      "mesh": 0,
      "name": "LOD0"
    },
    {
      "mesh": 1,
      "name": "LOD1"
    },
    {
      "mesh": 1,
      "name": "LOD2"
    },
    {
      "mesh": 2,
      "name": "LOD3"
    },
    {
      "mesh": 3,
      "name": "LOD4"
    },
    {
      "mesh": 3,
      "name": "LOD5"
    },
    {
      "mesh": 4,
      "name": "LOD6"
    },
    {
      "mesh": 5,
      "name": "LOD7"
    }
  ],
  "scene": 0,
  "scenes": [
    {
      "nodes": [
        0
      ]
    }
  ]
}
