{
  "accessors": [
    {
      "bufferView": 0,
      "componentType": 5126,
      "count": 9485,
      "max": [
        0.13597384095191956,
        2.005944013595581,
        0.1370227038860321
      ],
      "min": [
        -0.17049916088581085,
        0.011838450096547604,
        -0.13106369972229004
      ],
      "type": "VEC3"
    },
    {
      "bufferView": 1,
      "componentType": 5126,
      "count": 9485,
      "type": "VEC3"
    },
    {
      "bufferView": 2,
      "componentType": 5126,
      "count": 9485,
      "type": "VEC2"
    },
    {
      "bufferView": 3,
      "componentType": 5125,
      "count": 53934,
      "type": "SCALAR"
    },
    {
      "bufferView": 4,
      "componentType": 5125,
      "count": 13644,
      "type": "SCALAR"
    },
    {
      "bufferView": 5,
      "componentType": 5126,
      "count": 1692,
      "max": [
        0.14396505057811737,
        2.0075275897979736,
        0.13862398266792297
      ],
      "min": [
        -0.17458729445934296,
        0.011303259059786797,
        -0.13580985367298126
      ],
      "type": "VEC3"
    },
    {
      "bufferView": 6,
      "componentType": 5126,
      "count": 1692,
      "type": "VEC3"
    },
    {
      "bufferView": 7,
      "componentType": 5126,
      "count": 1692,
      "type": "VEC2"
    },
    {
      "bufferView": 8,
      "componentType": 5125,
      "count": 1890,
      "type": "SCALAR"
    },
    {
      "bufferView": 9,
      "componentType": 5126,
      "count": 192,
      "max": [
        0.11897727847099304,
        1.962081789970398,
        0.12491610646247864
      ],
      "min": [
        -0.12092906981706619,
        0.026195915415883064,
        -0.11355365812778473
      ],
      "type": "VEC3"
    },
    {
      "bufferView": 10,
      "componentType": 5126,
      "count": 192,
      "type": "VEC3"
    },
    {
      "bufferView": 11,
      "componentType": 5126,
      "count": 192,
      "type": "VEC2"
    },
    {
      "bufferView": 12,
      "componentType": 5125,
      "count": 198,
      "type": "SCALAR"
    },
    {
      "bufferView": 13,
      "componentType": 5126,
      "count": 6,
      "max": [
        0.06492746621370316,
        1.8279236555099487,
        0.04047343134880066
      ],
      "min": [
        -0.02599889412522316,
        0.05336954817175865,
        -0.012556117959320545
      ],
      "type": "VEC3"
    },
    {
      "bufferView": 14,
      "componentType": 5126,
      "count": 6,
      "type": "VEC3"
    },
    {
      "bufferView": 15,
      "componentType": 5126,
      "count": 6,
      "type": "VEC2"
    },
    {
      "bufferView": 16,
      "componentType": 5125,
      "count": 6,
      "type": "SCALAR"
    }
  ],
  "asset": {
    "generator": "BlitzRemesher",
    "version": "2.0"
  },
  "bufferViews": [
    {
      "buffer": 0,
      "byteLength": 113820,
      "byteOffset": 0
    },
    {
      "buffer": 0,
      "byteLength": 113820,
      "byteOffset": 113820
    },
    {
      "buffer": 0,
      "byteLength": 75880,
      "byteOffset": 227640
    },
    {
      "buffer": 0,
      "byteLength": 215736,
      "byteOffset": 303520
    },
    {
      "buffer": 0,
      "byteLength": 54576,
      "byteOffset": 519256
    },
    {
      "buffer": 0,
      "byteLength": 20304,
      "byteOffset": 573832
    },
    {
      "buffer": 0,
      "byteLength": 20304,
      "byteOffset": 594136
    },
    {
      "buffer": 0,
      "byteLength": 13536,
      "byteOffset": 614440
    },
    {
      "buffer": 0,
      "byteLength": 7560,
      "byteOffset": 627976
    },
    {
      "buffer": 0,
      "byteLength": 2304,
      "byteOffset": 635536
    },
    {
      "buffer": 0,
      "byteLength": 2304,
      "byteOffset": 637840
    },
    {
      "buffer": 0,
      "byteLength": 1536,
      "byteOffset": 640144
    },
    {
      "buffer": 0,
      "byteLength": 792,
      "byteOffset": 641680
    },
    {
      "buffer": 0,
      "byteLength": 72,
      "byteOffset": 642472
    },
    {
      "buffer": 0,
      "byteLength": 72,
      "byteOffset": 642544
    },
    {
      "buffer": 0,
      "byteLength": 48,
      "byteOffset": 642616
    },
    {
      "buffer": 0,
      "byteLength": 24,
      "byteOffset": 642664
    }
  ],
  "buffers": [
    {
      "byteLength": 642688,
      "uri": "chain.bin"
    }
  ],
  "materials": [
    {
      "doubleSided": true,
      "name": "material_0"
    }
  ],
  "meshes": [
    {
      "name": "LOD0",
      "primitives": [
        {
          "attributes": {
            "NORMAL": 1,
            "POSITION": 0,
            "TEXCOORD_0": 2
          },
          "indices": 3,
          "material": 0,
          "mode": 4
        }
      ]
    },
    {
      "name": "LOD1",
      "primitives": [
        {
          "attributes": {
            "NORMAL": 1,
            "POSITION": 0,
            "TEXCOORD_0": 2
          },
          "indices": 4,
          "material": 0,
          "mode": 4
        }
      ]
    },
    {
      "name": "LOD2",
      "primitives": [
        {
          "attributes": {
            "NORMAL": 6,
            "POSITION": 5,
            "TEXCOORD_0": 7
          },
          "indices": 8,
          "material": 0,
          "mode": 4
        }
      ]
    },
    {
      "name": "LOD5",
      "primitives": [
        {
          "attributes": {
            "NORMAL": 10,
            "POSITION": 9,
            "TEXCOORD_0": 11
          },
          "indices": 12,
          "material": 0,
          "mode": 4
        }
      ]
    },
    {
      "name": "LOD7",
      "primitives": [
        {
          "attributes": {
            "NORMAL": 14,
            "POSITION": 13,
            "TEXCOORD_0": 15
          },
          "indices": 16,
          "material": 0,
          "mode": 4
        }
      ]
    }
  ],
  "nodes": [
    {
      "mesh": 0,
      "name": "LOD0"
    },
    {
      "mesh": 1,
      "name": "LOD1"
    },
    {
      "mesh": 2,
      "name": "LOD2"
    },
    {
      "mesh": 2,
      "name": "LOD3"
    },
    {
      "mesh": 2,
      "name": "LOD4"
    },
    {
      "mesh": 3,
      "name": "LOD5"
    },
    {
      "mesh": 3,
      "name": "LOD6"
    },
    {
      "mesh": 4,
      "name": "LOD7"
    }
  ],
  "scene": 0,
  "scenes": [
    {
      "nodes": [
        0
      ]
    }
  ]
}
