{
  "accessors": [
    {
      "bufferView": 0,
      "componentType": 5126,
      "count": 6808,
      "max": [
        1.1197271347045898,
        0.745728075504303,
        1.520809531211853
      ],
      "min": [
        -1.1212488412857056,
        -0.0002588331699371338,
        -1.501520037651062
      ],
      "type": "VEC3"
    },
    {
      "bufferView": 1,
      "componentType": 5126,
      "count": 6808,
      "type": "VEC3"
    },
    {
      "bufferView": 2,
      "componentType": 5126,
      "count": 6808,
      "type": "VEC2"
    },
    {
      "bufferView": 3,
      "componentType": 5125,
      "count": 7878,
      "type": "SCALAR"
    },
    {
      "bufferView": 4,
      "componentType": 5125,
      "count": 22752,
      "type": "SCALAR"
    },
    {
      "bufferView": 5,
      "componentType": 5125,
      "count": 6960,
      "type": "SCALAR"
    },
    {
      "bufferView": 6,
      "componentType": 5125,
      "count": 20607,
      "type": "SCALAR"
    },
    {
      "bufferView": 7,
      "componentType": 5125,
      "count": 2694,
      "type": "SCALAR"
    },
    {
      "bufferView": 8,
      "componentType": 5125,
      "count": 11088,
      "type": "SCALAR"
    },
    {
      "bufferView": 9,
      "componentType": 5125,
      "count": 1791,
      "type": "SCALAR"
    },
    {
      "bufferView": 10,
      "componentType": 5125,
      "count": 5100,
      "type": "SCALAR"
    },
    {
      "bufferView": 11,
      "componentType": 5126,
      "count": 613,
      "max": [
        1.1173019409179688,
        0.7423933148384094,
        1.520809531211853
      ],
      "min": [
        -1.1188232898712158,
        -0.0002379825309617445,
        -1.5012472867965698
      ],
      "type": "VEC3"
    },
    {
      "bufferView": 12,
      "componentType": 5126,
      "count": 613,
      "type": "VEC3"
    },
    {
      "bufferView": 13,
      "componentType": 5126,
      "count": 613,
      "type": "VEC2"
    },
    {
      "bufferView": 14,
      "componentType": 5125,
      "count": 258,
      "type": "SCALAR"
    },
    {
      "bufferView": 15,
      "componentType": 5125,
      "count": 549,
      "type": "SCALAR"
    },
    {
      "bufferView": 16,
      "componentType": 5126,
      "count": 341,
      "max": [
        1.1173019409179688,
        0.7422622442245483,
        1.520809531211853
      ],
      "min": [
        -1.1188232898712158,
        -0.00023797131143510342,
        -1.5007208585739136
      ],
      "type": "VEC3"
    },
    {
      "bufferView": 17,
      "componentType": 5126,
      "count": 341,
      "type": "VEC3"
    },
    {
      "bufferView": 18,
      "componentType": 5126,
      "count": 341,
      "type": "VEC2"
    },
    {
      "bufferView": 19,
      "componentType": 5125,
      "count": 231,
      "type": "SCALAR"
    },
    {
      "bufferView": 20,
      "componentType": 5125,
      "count": 171,
      "type": "SCALAR"
    }
  ],
  "asset": {
    "generator": "BlitzRemesher",
    "version": "2.0"
  },
  "bufferViews": [
    {
      "buffer": 0,
      "byteLength": 81696,
      "byteOffset": 0
    },
    {
      "buffer": 0,
      "byteLength": 81696,
      "byteOffset": 81696
    },
    {
      "buffer": 0,
      "byteLength": 54464,
      "byteOffset": 163392
    },
    {
      "buffer": 0,
      "byteLength": 31512,
      "byteOffset": 217856
    },
    {
      "buffer": 0,
      "byteLength": 91008,
      "byteOffset": 249368
    },
    {
      "buffer": 0,
      "byteLength": 27840,
      "byteOffset": 340376
    },
    {
      "buffer": 0,
      "byteLength": 82428,
      "byteOffset": 368216
    },
    {
      "buffer": 0,
      "byteLength": 10776,
      "byteOffset": 450644
    },
    {
      "buffer": 0,
      "byteLength": 44352,
      "byteOffset": 461420
    },
    {
      "buffer": 0,
      "byteLength": 7164,
      "byteOffset": 505772
    },
    {
      "buffer": 0,
      "byteLength": 20400,
      "byteOffset": 512936
    },
    {
      "buffer": 0,
      "byteLength": 7356,
      "byteOffset": 533336
    },
    {
      "buffer": 0,
      "byteLength": 7356,
      "byteOffset": 540692
    },
    {
      "buffer": 0,
      "byteLength": 4904,
      "byteOffset": 548048
    },
    {
      "buffer": 0,
      "byteLength": 1032,
      "byteOffset": 552952
    },
    {
      "buffer": 0,
      "byteLength": 2196,
      "byteOffset": 553984
    },
    {
      "buffer": 0,
      "byteLength": 4092,
      "byteOffset": 556180
    },
    {
      "buffer": 0,
      "byteLength": 4092,
      "byteOffset": 560272
    },
    {
      "buffer": 0,
      "byteLength": 2728,
      "byteOffset": 564364
    },
    {
      "buffer": 0,
      "byteLength": 924,
      "byteOffset": 567092
    },
    {
      "buffer": 0,
      "byteLength": 684,
      "byteOffset": 568016
    }
  ],
  "buffers": [
    {
      "byteLength": 568700,
      "uri": "chain.bin"
    }
  ],
  "materials": [
    {
      "doubleSided": true,
      "name": "material_0"
    },
    {
      "doubleSided": true,
      "name": "material_1"
    }
  ],
  "meshes": [
    {
      "name": "LOD0",
      "primitives": [
        {
          "attributes": {
            "NORMAL": 1,
            "POSITION": 0,
            "TEXCOORD_0": 2
          },
          "indices": 3,
          "material": 0,
          "mode": 4
        },
        {
          "attributes": {
            "NORMAL": 1,
            "POSITION": 0,
            "TEXCOORD_0": 2
          },
          "indices": 4,
          "material": 1,
          "mode": 4
        }
      ]
    },
    {
      "name": "LOD1",
      "primitives": [
        {
          "attributes": {
            "NORMAL": 1,
            "POSITION": 0,
            "TEXCOORD_0": 2
          },
          "indices": 5,
          "material": 0,
          "mode": 4
        },
        {
          "attributes": {
            "NORMAL": 1,
            "POSITION": 0,
            "TEXCOORD_0": 2
          },
          "indices": 6,
          "material": 1,
          "mode": 4
        }
      ]
    },
    {
      "name": "LOD2",
      "primitives": [
        {
          "attributes": {
            "NORMAL": 1,
            "POSITION": 0,
            "TEXCOORD_0": 2
          },
          "indices": 7,
          "material": 0,
          "mode": 4
        },
        {
          "attributes": {
            "NORMAL": 1,
            "POSITION": 0,
            "TEXCOORD_0": 2
          },
          "indices": 8,
          "material": 1,
          "mode": 4
        }
      ]
    },
    {
      "name": "LOD3",
      "primitives": [
        {
          "attributes": {
            "NORMAL": 1,
            "POSITION": 0,
            "TEXCOORD_0": 2
          },
          "indices": 9,
          "material": 0,
          "mode": 4
        },
        {
          "attributes": {
            "NORMAL": 1,
            "POSITION": 0,
            "TEXCOORD_0": 2
          },
          "indices": 10,
          "material": 1,
          "mode": 4
        }
      ]
    },
    {
      "name": "LOD4",
      "primitives": [
        {
          "attributes": {
            "NORMAL": 12,
            "POSITION": 11,
            "TEXCOORD_0": 13
          },
          "indices": 14,
          "material": 0,
          "mode": 4
        },
        {
          "attributes": {
            "NORMAL": 12,
            "POSITION": 11,
            "TEXCOORD_0": 13
          },
          "indices": 15,
          "material": 1,
          "mode": 4
        }
      ]
    },
    {
      "name": "LOD7",
      "primitives": [
        {
          "attributes": {
            "NORMAL": 17,
            "POSITION": 16,
            "TEXCOORD_0": 18
          },
          "indices": 19,
          "material": 0,
          "mode": 4
        },
        {
          "attributes": {
            "NORMAL": 17,
            "POSITION": 16,
            "TEXCOORD_0": 18
          },
          "indices": 20,
          "material": 1,
          "mode": 4
        }
      ]
    }
  ],
  "nodes": [
    {
      "mesh": 0,
      "name": "LOD0"
    },
    {
      "mesh": 1,
      "name": "LOD1"
    },
    {
      "mesh": 2,
      "name": "LOD2"
    },
    {
      "mesh": 3,
      "name": "LOD3"
    },
    {
      "mesh": 4,
      "name": "LOD4"
    },
    {
      "mesh": 4,
      "name": "LOD5"
    },
    {
      "mesh": 4,
      "name": "LOD6"
    },
    {
      "mesh": 5,
      "name": "LOD7"
    }
  ],
  "scene": 0,
  "scenes": [
    {
      "nodes": [
        0
      ]
    }
  ]
}
