{
  "accessors": [
    {
      "bufferView": 0,
      "componentType": 5126,
      "count": 548,
      "max": [
        0.25550732016563416,
        1.1241090297698975,
        0.36709490418434143
      ],
      "min": [
        -0.25560837984085083,
        -0.000963064085226506,
        -1.1169147384748612e-08
      ],
      "type": "VEC3"
    },
    {
      "bufferView": 1,
      "componentType": 5126,
      "count": 548,
      "type": "VEC3"
    },
    {
      "bufferView": 2,
      "componentType": 5126,
      "count": 548,
      "type": "VEC2"
    },
    {
      "bufferView": 3,
      "componentType": 5125,
      "count": 1572,
      "type": "SCALAR"
    },
    {
      "bufferView": 4,
      "componentType": 5126,
      "count": 539,
      "max": [
        0.25550732016563416,
        1.1241090297698975,
        0.36709490418434143
      ],
      "min": [
        -0.25560975074768066,
        -0.000963058031629771,
        -1.6648678879960244e-08
      ],
      "type": "VEC3"
    },
    {
      "bufferView": 5,
      "componentType": 5126,
      "count": 539,
      "type": "VEC3"
    },
    {
      "bufferView": 6,
      "componentType": 5126,
      "count": 539,
      "type": "VEC2"
    },
    {
      "bufferView": 7,
      "componentType": 5125,
      "count": 1413,
      "type": "SCALAR"
    },
    {
      "bufferView": 8,
      "componentType": 5126,
      "count": 525,
      "max": [
        0.25550732016563416,
        1.1239266395568848,
        0.3670895993709564
      ],
      "min": [
        -0.25560975074768066,
        -0.0009630612912587821,
        -1.7242664398509078e-05
      ],
      "type": "VEC3"
    },
    {
      "bufferView": 9,
      "componentType": 5126,
      "count": 525,
      "type": "VEC3"
    },
    {
      "bufferView": 10,
      "componentType": 5126,
      "count": 525,
      "type": "VEC2"
    },
    {
      "bufferView": 11,
      "componentType": 5125,
      "count": 1269,
      "type": "SCALAR"
    },
    {
      "bufferView": 12,
      "componentType": 5126,
      "count": 413,
      "max": [
        0.25550732016563416,
        1.1262438297271729,
        0.3670895993709564
      ],
      "min": [
        -0.25560975074768066,
        -0.0005570759531110525,
        -2.775870598270558e-06
      ],
      "type": "VEC3"
    },
    {
      "bufferView": 13,
      "componentType": 5126,
      "count": 413,
      "type": "VEC3"
    },
    {
      "bufferView": 14,
      "componentType": 5126,
      "count": 413,
      "type": "VEC2"
    },
    {
      "bufferView": 15,
      "componentType": 5125,
      "count": 633,
      "type": "SCALAR"
    },
    {
      "bufferView": 16,
      "componentType": 5126,
      "count": 232,
      "max": [
        0.2553308308124542,
        1.12626314163208,
        0.36707621812820435
      ],
      "min": [
        -0.2555340528488159,
        -0.0196274071931839,
        2.4329853687277136e-09
      ],
      "type": "VEC3"
    },
    {
      "bufferView": 17,
      "componentType": 5126,
      "count": 232,
      "type": "VEC3"
    },
    {
      "bufferView": 18,
      "componentType": 5126,
      "count": 232,
      "type": "VEC2"
    },
    {
      "bufferView": 19,
      "componentType": 5125,
      "count": 315,
      "type": "SCALAR"
    },
    {
      "bufferView": 20,
      "componentType": 5126,
      "count": 124,
      "max": [
        0.255314439535141,
        1.1266659498214722,
        0.3669041693210602
      ],
      "min": [
        -0.2555144131183624,
        -0.015171952545642853,
        2.4329853687277136e-09
      ],
      "type": "VEC3"
    },
    {
      "bufferView": 21,
      "componentType": 5126,
      "count": 124,
      "type": "VEC3"
    },
    {
      "bufferView": 22,
      "componentType": 5126,
      "count": 124,
      "type": "VEC2"
    },
    {
      "bufferView": 23,
      "componentType": 5125,
      "count": 156,
      "type": "SCALAR"
    },
    {
      "bufferView": 24,
      "componentType": 5126,
      "count": 65,
      "max": [
        0.2553088068962097,
        1.1266659498214722,
        0.2932364344596863
      ],
      "min": [
        -0.2555122673511505,
        -0.0005803391104564071,
        -0.0012305553536862135
      ],
      "type": "VEC3"
    },
    {
      "bufferView": 25,
      "componentType": 5126,
      "count": 65,
      "type": "VEC3"
    },
    {
      "bufferView": 26,
      "componentType": 5126,
      "count": 65,
      "type": "VEC2"
    },
    {
      "bufferView": 27,
      "componentType": 5125,
      "count": 78,
      "type": "SCALAR"
    }
  ],
  "asset": {
    "generator": "BlitzRemesher",
    "version": "2.0"
  },
  "bufferViews": [
    {
      "buffer": 0,
      "byteLength": 6576,
      "byteOffset": 0
    },
    {
      "buffer": 0,
      "byteLength": 6576,
      "byteOffset": 6576
    },
    {
      "buffer": 0,
      "byteLength": 4384,
      "byteOffset": 13152
    },
    {
      "buffer": 0,
      "byteLength": 6288,
      "byteOffset": 17536
    },
    {
      "buffer": 0,
      "byteLength": 6468,
      "byteOffset": 23824
    },
    {
      "buffer": 0,
      "byteLength": 6468,
      "byteOffset": 30292
    },
    {
      "buffer": 0,
      "byteLength": 4312,
      "byteOffset": 36760
    },
    {
      "buffer": 0,
      "byteLength": 5652,
      "byteOffset": 41072
    },
    {
      "buffer": 0,
      "byteLength": 6300,
      "byteOffset": 46724
    },
    {
      "buffer": 0,
      "byteLength": 6300,
      "byteOffset": 53024
    },
    {
      "buffer": 0,
      "byteLength": 4200,
      "byteOffset": 59324
    },
    {
      "buffer": 0,
      "byteLength": 5076,
      "byteOffset": 63524
    },
    {
      "buffer": 0,
      "byteLength": 4956,
      "byteOffset": 68600
    },
    {
      "buffer": 0,
      "byteLength": 4956,
      "byteOffset": 73556
    },
    {
      "buffer": 0,
      "byteLength": 3304,
      "byteOffset": 78512
    },
    {
      "buffer": 0,
      "byteLength": 2532,
      "byteOffset": 81816
    },
    {
      "buffer": 0,
      "byteLength": 2784,
      "byteOffset": 84348
    },
    {
      "buffer": 0,
      "byteLength": 2784,
      "byteOffset": 87132
    },
    {
      "buffer": 0,
      "byteLength": 1856,
      "byteOffset": 89916
    },
    {
      "buffer": 0,
      "byteLength": 1260,
      "byteOffset": 91772
    },
    {
      "buffer": 0,
      "byteLength": 1488,
      "byteOffset": 93032
    },
    {
      "buffer": 0,
      "byteLength": 1488,
      "byteOffset": 94520
    },
    {
      "buffer": 0,
      "byteLength": 992,
      "byteOffset": 96008
    },
    {
      "buffer": 0,
      "byteLength": 624,
      "byteOffset": 97000
    },
    {
      "buffer": 0,
      "byteLength": 780,
      "byteOffset": 97624
    },
    {
      "buffer": 0,
      "byteLength": 780,
      "byteOffset": 98404
    },
    {
      "buffer": 0,
      "byteLength": 520,
      "byteOffset": 99184
    },
    {
      "buffer": 0,
      "byteLength": 312,
      "byteOffset": 99704
    }
  ],
  "buffers": [
    {
      "byteLength": 100016,
      "uri": "chain.bin"
    }
  ],
  "materials": [
    {
      "doubleSided": true,
      "name": "material_0"
    }
  ],
  "meshes": [
    {
      "name": "LOD0",
      "primitives": [
        {
          "attributes": {
            "NORMAL": 1,
            "POSITION": 0,
            "TEXCOORD_0": 2
          },
          "indices": 3,
          "material": 0,
          "mode": 4
        }
      ]
    },
    {
      "name": "LOD1",
      "primitives": [
        {
          "attributes": {
            "NORMAL": 5,
            "POSITION": 4,
            "TEXCOORD_0": 6
          },
          "indices": 7,
          "material": 0,
          "mode": 4
        }
      ]
    },
    {
      "name": "LOD2",
      "primitives": [
        {
          "attributes": {
            "NORMAL": 9,
            "POSITION": 8,
            "TEXCOORD_0": 10
          },
          "indices": 11,
          "material": 0,
          "mode": 4
        }
      ]
    },
    {
      "name": "LOD3",
      "primitives": [
        {
          "attributes": {
            "NORMAL": 13,
            "POSITION": 12,
            "TEXCOORD_0": 14
          },
          "indices": 15,
          "material": 0,
          "mode": 4
        }
      ]
    },
    {
      "name": "LOD4",
      "primitives": [
        {
          "attributes": {
            "NORMAL": 17,
            "POSITION": 16,
            "TEXCOORD_0": 18
          },
          "indices": 19,
          "material": 0,
          "mode": 4
        }
      ]
    },
    {
      "name": "LOD6",
      "primitives": [
        {
          "attributes": {
            "NORMAL": 21,
            "POSITION": 20,
            "TEXCOORD_0": 22
          },
          "indices": 23,
          "material": 0,
          "mode": 4
        }
      ]
    },
    {
      "name": "LOD7",
      "primitives": [
        {
          "attributes": {
            "NORMAL": 25,
            "POSITION": 24,
            "TEXCOORD_0": 26
          },
          "indices": 27,
          "material": 0,
          "mode": 4
        }
      ]
    }
  ],
  "nodes": [
    {
      "mesh": 0,
      "name": "LOD0"
    },
    {
      "mesh": 1,
      "name": "LOD1"
    },
    {
      "mesh": 2,
      "name": "LOD2"
    },
    {
      "mesh": 3,
      "name": "LOD3"
    },
    {
      "mesh": 4,
      "name": "LOD4"
    },
    {
      "mesh": 4,
      "name": "LOD5"
    },
    {
      "mesh": 5,
      "name": "LOD6"
    },
    {
      "mesh": 6,
      "name": "LOD7"
    }
  ],
  "scene": 0,
  "scenes": [
    {
      "nodes": [
        0
      ]
    }
  ]
}
