{
  "accessors": [
    {
      "bufferView": 0,
      "componentType": 5126,
      "count": 4019,
      "max": [
        0.04917982220649719,
        0.08536732196807861,
        0.05008470639586449
      ],
      "min": [
        -0.04838135838508606,
        -2.2622070900979452e-05,
        -0.04581700265407562
      ],
      "type": "VEC3"
    },
    {
      "bufferView": 1,
      "componentType": 5126,
      "count": 4019,
      "type": "VEC3"
    },
    {
      "bufferView": 2,
      "componentType": 5126,
      "count": 4019,
      "type": "VEC2"
    },
    {
      "bufferView": 3,
      "componentType": 5125,
      "count": 21036,
      "type": "SCALAR"
    },
    {
      "bufferView": 4,
      "componentType": 5125,
      "count": 18930,
      "type": "SCALAR"
    },
    {
      "bufferView": 5,
      "componentType": 5126,
      "count": 557,
      "max": [
        0.04845450073480606,
        0.08479839563369751,
        0.05000237002968788
      ],
      "min": [
        -0.04882077872753143,
        -0.00014851480955258012,
        -0.04581563547253609
      ],
      "type": "VEC3"
    },
    {
      "bufferView": 6,
      "componentType": 5126,
      "count": 557,
      "type": "VEC3"
    },
    {
      "bufferView": 7,
      "componentType": 5126,
      "count": 557,
      "type": "VEC2"
    },
    {
      "bufferView": 8,
      "componentType": 5125,
      "count": 606,
      "type": "SCALAR"
    },
    {
      "bufferView": 9,
      "componentType": 5126,
      "count": 200,
      "max": [
        0.050593920052051544,
        0.08357413858175278,
        0.04489876702427864
      ],
      "min": [
        -0.04567119851708412,
        -0.0006890999502502382,
        -0.05091533437371254
      ],
      "type": "VEC3"
    },
    {
      "bufferView": 10,
      "componentType": 5126,
      "count": 200,
      "type": "VEC3"
    },
    {
      "bufferView": 11,
      "componentType": 5126,
      "count": 200,
      "type": "VEC2"
    },
    {
      "bufferView": 12,
      "componentType": 5125,
      "count": 210,
      "type": "SCALAR"
    }
  ],
  "asset": {
    "generator": "BlitzRemesher",
    "version": "2.0"
  },
  "bufferViews": [
    {
      "buffer": 0,
      "byteLength": 48228,
      "byteOffset": 0
    },
    {
      "buffer": 0,
      "byteLength": 48228,
      "byteOffset": 48228
    },
    {
      "buffer": 0,
      "byteLength": 32152,
      "byteOffset": 96456
    },
    {
      "buffer": 0,
      "byteLength": 84144,
      "byteOffset": 128608
    },
    {
      "buffer": 0,
      "byteLength": 75720,
      "byteOffset": 212752
    },
    {
      "buffer": 0,
      "byteLength": 6684,
      "byteOffset": 288472
    },
    {
      "buffer": 0,
      "byteLength": 6684,
      "byteOffset": 295156
    },
    {
      "buffer": 0,
      "byteLength": 4456,
      "byteOffset": 301840
    },
    {
      "buffer": 0,
      "byteLength": 2424,
      "byteOffset": 306296
    },
    {
      "buffer": 0,
      "byteLength": 2400,
      "byteOffset": 308720
    },
    {
      "buffer": 0,
      "byteLength": 2400,
      "byteOffset": 311120
    },
    {
      "buffer": 0,
      "byteLength": 1600,
      "byteOffset": 313520
    },
    {
      "buffer": 0,
      "byteLength": 840,
      "byteOffset": 315120
    }
  ],
  "buffers": [
    {
      "byteLength": 315960,
      "uri": "chain.bin"
    }
  ],
  "materials": [
    {
      "doubleSided": true,
      "name": "material_0"
    }
  ],
  "meshes": [
    {
      "name": "LOD0",
      "primitives": [
        {
          "attributes": {
            "NORMAL": 1,
            "POSITION": 0,
            "TEXCOORD_0": 2
          },
          "indices": 3,
          "material": 0,
          "mode": 4
        }
      ]
    },
    {
      "name": "LOD1",
      "primitives": [
        {
          "attributes": {
            "NORMAL": 1,
            "POSITION": 0,
            "TEXCOORD_0": 2
          },
          "indices": 4,
          "material": 0,
          "mode": 4
        }
      ]
    },
    {
      "name": "LOD4",
      "primitives": [
        {
          "attributes": {
            "NORMAL": 6,
            "POSITION": 5,
            "TEXCOORD_0": 7
          },
          "indices": 8,
          "material": 0,
          "mode": 4
        }
      ]
    },
    {
      "name": "LOD7",
      "primitives": [
        {
          "attributes": {
            "NORMAL": 10,
            "POSITION": 9,
            "TEXCOORD_0": 11
          },
          "indices": 12,
          "material": 0,
          "mode": 4
        }
      ]
    }
  ],
  "nodes": [
    {
      "mesh": 0,
      "name": "LOD0"
    },
    {
      "mesh": 1,
      "name": "LOD1"
    },
    {
      "mesh": 1,
      "name": "LOD2"
    },
    {
      "mesh": 1,
      "name": "LOD3"
    },
    {
      "mesh": 2,
      "name": "LOD4"
    },
    {
      "mesh": 2,
      "name": "LOD5"
    },
    {
      "mesh": 2,
      "name": "LOD6"
    },
    {
      "mesh": 3,
      "name": "LOD7"
    }
  ],
  "scene": 0,
  "scenes": [
    {
      "nodes": [
        0
      ]
    }
  ]
}
