{
  "accessors": [
    {
      "bufferView": 0,
      "componentType": 5126,
      "count": 13182,
      "max": [
        0.32610955834388733,
        0.5419937372207642,
        0.2440638393163681
      ],
      "min": [
        -0.3258250653743744,
        -0.0008170718792825937,
        -0.2418784648180008
      ],
      "type": "VEC3"
    },
    {
      "bufferView": 1,
      "componentType": 5126,
      "count": 13182,
      "type": "VEC3"
    },
    {
      "bufferView": 2,
      "componentType": 5126,
      "count": 13182,
      "type": "VEC2"
    },
    {
      "bufferView": 3,
      "componentType": 5125,
      "count": 43272,
      "type": "SCALAR"
    },
    {
      "bufferView": 4,
      "componentType": 5125,
      "count": 78,
      "type": "SCALAR"
    },
    {
      "bufferView": 5,
      "componentType": 5125,
      "count": 38949,
      "type": "SCALAR"
    },
    {
      "bufferView": 6,
      "componentType": 5125,
      "count": 66,
      "type": "SCALAR"
    },
    {
      "bufferView": 7,
      "componentType": 5125,
      "count": 25020,
      "type": "SCALAR"
    },
    {
      "bufferView": 8,
      "componentType": 5125,
      "count": 60,
      "type": "SCALAR"
    },
    {
      "bufferView": 9,
      "componentType": 5126,
      "count": 1727,
      "max": [
        0.3260366916656494,
        0.5419299602508545,
        0.24224285781383514
      ],
      "min": [
        -0.3261164128780365,
        0.00030455205705948174,
        -0.24217866361141205
      ],
      "type": "VEC3"
    },
    {
      "bufferView": 10,
      "componentType": 5126,
      "count": 1727,
      "type": "VEC3"
    },
    {
      "bufferView": 11,
      "componentType": 5126,
      "count": 1727,
      "type": "VEC2"
    },
    {
      "bufferView": 12,
      "componentType": 5125,
      "count": 2388,
      "type": "SCALAR"
    },
    {
      "bufferView": 13,
      "componentType": 5125,
      "count": 60,
      "type": "SCALAR"
    },
    {
      "bufferView": 14,
      "componentType": 5126,
      "count": 571,
      "max": [
        0.32624778151512146,
        0.5418251156806946,
        0.24150563776493073
      ],
      "min": [
        -0.32542744278907776,
        0.002985023194923997,
        -0.24205996096134186
      ],
      "type": "VEC3"
    },
    {
      "bufferView": 15,
      "componentType": 5126,
      "count": 571,
      "type": "VEC3"
    },
    {
      "bufferView": 16,
      "componentType": 5126,
      "count": 571,
      "type": "VEC2"
    },
    {
      "bufferView": 17,
      "componentType": 5125,
      "count": 660,
      "type": "SCALAR"
    },
    {
      "bufferView": 18,
      "componentType": 5125,
      "count": 60,
      "type": "SCALAR"
    },
    {
      "bufferView": 19,
      "componentType": 5126,
      "count": 188,
      "max": [
        0.3252411484718323,
        0.5380800366401672,
        0.24150563776493073
      ],
      "min": [
        -0.30849573016166687,
        0.0030248856637626886,
        -0.2300703227519989
      ],
      "type": "VEC3"
    },
    {
      "bufferView": 20,
      "componentType": 5126,
      "count": 188,
      "type": "VEC3"
    },
    {
      "bufferView": 21,
      "componentType": 5126,
      "count": 188,
      "type": "VEC2"
    },
    {
      "bufferView": 22,
      "componentType": 5125,
      "count": 213,
      "type": "SCALAR"
    },
    {
      "bufferView": 23,
      "componentType": 5125,
      "count": 60,
      "type": "SCALAR"
    }
  ],
  "asset": {
    "generator": "BlitzRemesher",
    "version": "2.0"
  },
  "bufferViews": [
    {
      "buffer": 0,
      "byteLength": 158184,
      "byteOffset": 0
    },
    {
      "buffer": 0,
      "byteLength": 158184,
      "byteOffset": 158184
    },
    {
      "buffer": 0,
      "byteLength": 105456,
      "byteOffset": 316368
    },
    {
      "buffer": 0,
      "byteLength": 173088,
      "byteOffset": 421824
    },
    {
      "buffer": 0,
      "byteLength": 312,
      "byteOffset": 594912
    },
    {
      "buffer": 0,
      "byteLength": 155796,
      "byteOffset": 595224
    },
    {
      "buffer": 0,
      "byteLength": 264,
      "byteOffset": 751020
    },
    {
      "buffer": 0,
      "byteLength": 100080,
      "byteOffset": 751284
    },
    {
      "buffer": 0,
      "byteLength": 240,
      "byteOffset": 851364
    },
    {
      "buffer": 0,
      "byteLength": 20724,
      "byteOffset": 851604
    },
    {
      "buffer": 0,
      "byteLength": 20724,
      "byteOffset": 872328
    },
    {
      "buffer": 0,
      "byteLength": 13816,
      "byteOffset": 893052
    },
    {
      "buffer": 0,
      "byteLength": 9552,
      "byteOffset": 906868
    },
    {
      "buffer": 0,
      "byteLength": 240,
      "byteOffset": 916420
    },
    {
      "buffer": 0,
      "byteLength": 6852,
      "byteOffset": 916660
    },
    {
      "buffer": 0,
      "byteLength": 6852,
      "byteOffset": 923512
    },
    {
      "buffer": 0,
      "byteLength": 4568,
      "byteOffset": 930364
    },
    {
      "buffer": 0,
      "byteLength": 2640,
      "byteOffset": 934932
    },
    {
      "buffer": 0,
      "byteLength": 240,
      "byteOffset": 937572
    },
    {
      "buffer": 0,
      "byteLength": 2256,
      "byteOffset": 937812
    },
    {
      "buffer": 0,
      "byteLength": 2256,
      "byteOffset": 940068
    },
    {
      "buffer": 0,
      "byteLength": 1504,
      "byteOffset": 942324
    },
    {
      "buffer": 0,
      "byteLength": 852,
      "byteOffset": 943828
    },
    {
      "buffer": 0,
      "byteLength": 240,
      "byteOffset": 944680
    }
  ],
  "buffers": [
    {
      "byteLength": 944920,
      "uri": "chain.bin"
    }
  ],
  "materials": [
    {
      "doubleSided": true,
      "name": "material_0"
    },
    {
      "doubleSided": true,
      "name": "material_1"
    }
  ],
  "meshes": [
    {
      "name": "LOD0",
      "primitives": [
        {
          "attributes": {
            "NORMAL": 1,
            "POSITION": 0,
            "TEXCOORD_0": 2
          },
          "indices": 3,
          "material": 0,
          "mode": 4
        },
        {
          "attributes": {
            "NORMAL": 1,
            "POSITION": 0,
            "TEXCOORD_0": 2
          },
          "indices": 4,
          "material": 1,
          "mode": 4
        }
      ]
    },
    {
      "name": "LOD1",
      "primitives": [
        {
          "attributes": {
            "NORMAL": 1,
            "POSITION": 0,
            "TEXCOORD_0": 2
          },
          "indices": 5,
          "material": 0,
          "mode": 4
        },
        {
          "attributes": {
            "NORMAL": 1,
            "POSITION": 0,
            "TEXCOORD_0": 2
          },
          "indices": 6,
          "material": 1,
          "mode": 4
        }
      ]
    },
    {
      "name": "LOD2",
      "primitives": [
        {
          "attributes": {
            "NORMAL": 1,
            "POSITION": 0,
            "TEXCOORD_0": 2
          },
          "indices": 7,
          "material": 0,
          "mode": 4
        },
        {
          "attributes": {
            "NORMAL": 1,
            "POSITION": 0,
            "TEXCOORD_0": 2
          },
          "indices": 8,
          "material": 1,
          "mode": 4
        }
      ]
    },
    {
      "name": "LOD3",
      "primitives": [
        {
          "attributes": {
            "NORMAL": 10,
            "POSITION": 9,
            "TEXCOORD_0": 11
          },
          "indices": 12,
          "material": 0,
          "mode": 4
        },
        {
          "attributes": {
            "NORMAL": 10,
            "POSITION": 9,
            "TEXCOORD_0": 11
          },
          "indices": 13,
          "material": 1,
          "mode": 4
        }
      ]
    },
    {
      "name": "LOD4",
      "primitives": [
        {
          "attributes": {
            "NORMAL": 15,
            "POSITION": 14,
            "TEXCOORD_0": 16
          },
          "indices": 17,
          "material": 0,
          "mode": 4
        },
        {
          "attributes": {
            "NORMAL": 15,
            "POSITION": 14,
            "TEXCOORD_0": 16
          },
          "indices": 18,
          "material": 1,
          "mode": 4
        }
      ]
    },
    {
      "name": "LOD7",
      "primitives": [
        {
          "attributes": {
            "NORMAL": 20,
            "POSITION": 19,
            "TEXCOORD_0": 21
          },
          "indices": 22,
          "material": 0,
          "mode": 4
        },
        {
          "attributes": {
            "NORMAL": 20,
            "POSITION": 19,
            "TEXCOORD_0": 21
          },
          "indices": 23,
          "material": 1,
          "mode": 4
        }
      ]
    }
  ],
  "nodes": [
    {
      "mesh": 0,
      "name": "LOD0"
    },
    {
      "mesh": 1,
      "name": "LOD1"
    },
    {
      "mesh": 2,
      "name": "LOD2"
    },
    {
      "mesh": 3,
      "name": "LOD3"
    },
    {
      "mesh": 4,
      "name": "LOD4"
    },
    {
      "mesh": 4,
      "name": "LOD5"
    },
    {
      "mesh": 4,
      "name": "LOD6"
    },
    {
      "mesh": 5,
      "name": "LOD7"
    }
  ],
  "scene": 0,
  "scenes": [
    {
      "nodes": [
        0
      ]
    }
  ]
}
